<svg width="52" height="58" viewBox="0 0 52 58" fill="none" xmlns="http://www.w3.org/2000/svg">
<path fill-rule="evenodd" clip-rule="evenodd" d="M51.3182 41.1811V16.7018V16.7C51.3182 15.1052 50.4689 13.6318 49.0887 12.8353L27.8904 0.597388C26.5084 -0.199129 24.8081 -0.199129 23.4296 0.597388L2.22954 12.8353C0.851025 13.6335 0 15.1052 0 16.7V41.1793C0 42.7724 0.851025 44.2458 2.22954 45.0423L21.2932 56.0476L23.4296 57.282C24.8098 58.0785 26.5101 58.0785 27.8904 57.282L29.4553 56.3799L49.0887 45.0441C50.4689 44.2458 51.3182 42.7741 51.3182 41.1811ZM29.4553 31.8796V25.9417C29.4553 24.5228 30.6052 23.3711 32.026 23.3711H36.7998V16.4538H29.4922C29.4861 16.4538 29.4795 16.4552 29.4729 16.4565C29.4663 16.4578 29.4597 16.4591 29.4535 16.4591V16.4538C24.947 16.4538 21.2932 20.1076 21.2932 24.6159V31.8796H14.5184V39.8781H21.2932V56.0458L23.4296 57.2802C24.8098 58.0767 26.5101 58.0767 27.8904 57.2802L29.4553 56.3782V39.8781H35.6375L36.7998 31.8796H29.4553Z" fill="currentColor"/>
</svg>
