<svg width="52" height="58" viewBox="0 0 52 58" fill="currentColor" xmlns="http://www.w3.org/2000/svg">
<path fill-rule="evenodd" clip-rule="evenodd" d="M0 41.1287V16.7269C0 15.111 0.863332 13.6164 2.26295 12.8076L23.3961 0.606619C24.7958 -0.202206 26.5224 -0.202206 27.922 0.606619L49.0552 12.8076C50.4549 13.6146 51.3182 15.1092 51.3182 16.7269V41.1287C51.3182 42.7446 50.4549 44.2392 49.0552 45.048L27.922 57.249C26.5224 58.0578 24.7958 58.0578 23.3961 57.249L2.26295 45.048C0.863332 44.241 0 42.7464 0 41.1287ZM18.0051 14.2564H33.313C37.54 14.2564 40.9811 17.6957 40.9811 21.9244V35.9294C40.9811 40.1564 37.5418 43.5975 33.313 43.5975H18.0051C13.7764 43.5975 10.3354 40.1582 10.3354 35.9294V21.9244C10.3354 17.6975 13.7764 14.2564 18.0051 14.2564ZM18.0051 16.9607C15.2675 16.9607 13.0414 19.1868 13.0414 21.9244V35.9294C13.0414 38.6671 15.2675 40.8932 18.0051 40.8932H33.313C36.0507 40.8932 38.2768 38.6671 38.2768 35.9294V21.9244C38.2768 19.1868 36.0507 16.9607 33.313 16.9607H18.0051ZM25.6591 36.0613C29.5925 36.0613 32.7926 32.8611 32.7926 28.9278C32.7926 24.9944 29.5925 21.7943 25.6591 21.7943C21.7258 21.7943 18.5256 24.9944 18.5256 28.9278C18.5256 32.8611 21.7258 36.0613 25.6591 36.0613ZM25.6591 24.5004C28.1014 24.5004 30.0865 26.4872 30.0865 28.9278C30.0865 31.3683 28.0997 33.3552 25.6591 33.3552C23.2186 33.3552 21.2317 31.3683 21.2317 28.9278C21.2317 26.4872 23.2186 24.5004 25.6591 24.5004ZM35.3773 21.0242C35.3773 22.0845 34.5157 22.946 33.4555 22.946C32.3952 22.946 31.5336 22.0845 31.5336 21.0242C31.5336 19.9639 32.3952 19.1024 33.4555 19.1024C34.5157 19.1024 35.3773 19.9639 35.3773 21.0242Z" fill="currentColor"/>
</svg>
