<svg width="44" height="57" viewBox="0 0 44 57" fill="none" xmlns="http://www.w3.org/2000/svg">
<path fill-rule="evenodd" clip-rule="evenodd" d="M18.3325 52.6981C19.4781 53.9166 20.5748 55.0832 21.5848 56.1928C22.8689 54.8134 24.2149 53.4246 25.5806 52.0156C34.1926 43.1297 43.5849 33.4389 43.1411 20.238C41.9215 8.85045 32.7356 0 21.5848 0C10.434 0 1.24818 8.85045 0.0285209 20.238C-0.62578 32.5316 10.1128 43.9546 18.3325 52.6981ZM21.3801 30.5723C26.2403 30.5723 30.1804 26.4275 30.1804 21.3145C30.1804 16.2016 26.2403 12.0567 21.3801 12.0567C16.5198 12.0567 12.5797 16.2016 12.5797 21.3145C12.5797 26.4275 16.5198 30.5723 21.3801 30.5723Z" fill="#FFCC00"/>
</svg>
