<svg width="58" height="57" viewBox="0 0 58 57" fill="currentColor" xmlns="http://www.w3.org/2000/svg">
<path d="M11.5576 19.2934C16.6448 33.1713 21.9114 38.7085 35.3095 44.6062L29.5031 52.7608C14.1179 45.395 6.45481 32.9787 2.84575 23.2892L11.5576 19.2934Z" fill="currentColor"/>
<path d="M15.8252 0.13401C18.5454 0.123372 20.6138 2.38689 20.4283 4.94998C20.1365 8.98341 20.4472 11.8935 21.2838 15.5006C21.7433 17.482 20.7037 19.4944 19.0517 20.7906C16.825 22.5376 15.1238 24.7638 13.7718 26.6801C11.8978 29.3362 5.44875 29.1454 4.02253 26.2518C1.09144 20.305 -0.894953 9.34902 3.38529 1.94693C4.05761 0.784241 5.41133 0.174733 6.81406 0.169248L15.8252 0.13401Z" fill="currentColor"/>
<path d="M57.1178 44.1403C57.4561 41.5912 55.3254 39.3798 52.6089 39.2454C48.3339 39.0339 45.3123 38.3927 41.6212 37.1746C39.5936 36.5055 37.3532 37.2381 35.792 38.6311C33.6877 40.5087 31.1431 41.8359 28.9661 42.873C25.9487 44.3105 25.3737 50.3798 28.2439 52.065C34.1425 55.5282 45.4204 58.7081 53.716 55.5853C55.0191 55.0948 55.8226 53.8989 55.997 52.5845L57.1178 44.1403Z" fill="currentColor"/>
</svg>
