<svg width="52" height="58" viewBox="0 0 52 58" fill="none" xmlns="http://www.w3.org/2000/svg">
<path fill-rule="evenodd" clip-rule="evenodd" d="M0 41.1287V16.7269C0 15.111 0.863332 13.6164 2.26295 12.8076L23.3961 0.606619C24.7958 -0.202206 26.5224 -0.202206 27.922 0.606619L49.0552 12.8076C50.4549 13.6146 51.3182 15.1092 51.3182 16.7269V41.1287C51.3182 42.7446 50.4566 44.2392 49.0552 45.048L27.922 57.249C26.5224 58.0578 24.7958 58.0578 23.3961 57.249L2.26295 45.048C0.863332 44.241 0 42.7464 0 41.1287ZM37.0987 26.8547V22.3868H37.0969C36.3971 22.2673 35.4072 22.0106 34.3557 21.4145C33.2304 20.7762 32.4321 19.9762 31.8888 19.2887C31.4281 18.7032 31.1626 17.9875 31.1327 17.2438L31.0852 16.1061H26.6191V33.6559C26.6262 33.735 26.6262 33.8159 26.6262 33.895C26.6262 36.0191 24.896 37.7492 22.7719 37.7492C20.6479 37.7492 18.9177 36.0208 18.9177 33.895C18.9177 31.7692 20.6479 30.0408 22.7719 30.0408C23.2238 30.0408 23.6581 30.1182 24.0625 30.2641V25.8613C23.6423 25.7945 23.2098 25.7593 22.7719 25.7593C18.2847 25.7593 14.6362 29.4113 14.6362 33.8968C14.6362 38.3822 18.2847 42.0325 22.7719 42.0325C27.2592 42.0325 30.9077 38.3822 30.9077 33.8968C30.9077 33.7121 30.9024 33.531 30.8901 33.3517L30.9077 33.3798V24.3491C31.6233 24.9188 32.7135 25.652 34.1799 26.1901C35.3035 26.6015 36.3162 26.7791 37.0987 26.8547Z" fill="#FFCC00"/>
</svg>
