<svg width="69" height="122" viewBox="0 0 69 122" fill="none" xmlns="http://www.w3.org/2000/svg">
<g filter="url(#filter0_d_36_247)">
<path d="M36.0267 83.6913V84.1519C35.5354 84.1672 35.167 84.2286 34.9213 84.3361C34.6757 84.4282 34.5068 84.6124 34.4147 84.8888C34.3379 85.1498 34.2996 85.5643 34.2996 86.1324V97.5548C34.2996 98.1075 34.3379 98.522 34.4147 98.7983C34.5068 99.0747 34.6757 99.2589 34.9213 99.351C35.167 99.4432 35.5354 99.5046 36.0267 99.5353V99.9958C35.5969 99.9651 35.0518 99.9498 34.3917 99.9498C33.7469 99.9344 33.0867 99.9268 32.4112 99.9268C31.6742 99.9268 30.9834 99.9344 30.3386 99.9498C29.6937 99.9498 29.1717 99.9651 28.7726 99.9958V99.5353C29.2946 99.5046 29.6861 99.4432 29.9471 99.351C30.2234 99.2589 30.4076 99.0747 30.4998 98.7983C30.5919 98.522 30.6379 98.1075 30.6379 97.5548V85.0961H30.7991L25.0879 100.019H24.7195L18.5016 85.1882V96.2191C18.5016 97.0635 18.5477 97.716 18.6398 98.1766C18.7319 98.6218 18.9315 98.9442 19.2386 99.1438C19.561 99.328 20.0599 99.4585 20.7354 99.5353V99.9958C20.4437 99.9651 20.0599 99.9498 19.584 99.9498C19.1081 99.9344 18.6628 99.9268 18.2483 99.9268C17.8952 99.9268 17.5344 99.9344 17.1659 99.9498C16.7975 99.9498 16.4904 99.9651 16.2448 99.9958V99.5353C16.7361 99.4585 17.1045 99.328 17.3502 99.1438C17.5958 98.9595 17.757 98.6602 17.8338 98.2456C17.9259 97.8158 17.972 97.2324 17.972 96.4954V86.1324C17.972 85.5643 17.9259 85.1498 17.8338 84.8888C17.757 84.6124 17.5881 84.4282 17.3271 84.3361C17.0815 84.2286 16.7207 84.1672 16.2448 84.1519V83.6913C16.4904 83.7066 16.7975 83.722 17.1659 83.7373C17.5344 83.7527 17.8952 83.7604 18.2483 83.7604C18.9085 83.7604 19.5533 83.7527 20.1827 83.7373C20.8276 83.722 21.3956 83.7066 21.8869 83.6913L26.723 95.367L26.1473 95.8967L30.7761 83.7604C31.0371 83.7604 31.3058 83.7604 31.5821 83.7604C31.8585 83.7604 32.1348 83.7604 32.4112 83.7604C33.0867 83.7604 33.7469 83.7527 34.3917 83.7373C35.0518 83.722 35.5969 83.7066 36.0267 83.6913Z" fill="#2D2D2D"/>
</g>
<g filter="url(#filter1_d_36_247)">
<path d="M47.2199 80.2855V100.414C47.2199 101.724 46.5212 102.935 45.3857 103.591L29.2331 112.912L27.9457 113.654C26.8101 114.309 25.4113 114.309 24.2757 113.654L22.5181 112.639L6.83427 103.59C5.70015 102.935 5 101.723 5 100.413V80.2841C5 78.9727 5.70015 77.7625 6.83427 77.1061L24.2757 67.0431C25.4098 66.3881 26.8087 66.3881 27.9457 67.0431L45.3857 77.1061C46.5212 77.7611 47.2199 78.9727 47.2199 80.2841V80.2855Z" stroke="#2D2D2D" stroke-width="2.3029" shape-rendering="crispEdges"/>
</g>
<g filter="url(#filter2_d_36_247)">
<path d="M47.2199 15.0366V35.1656C47.2199 36.4755 46.5212 37.6857 45.3857 38.3421L29.2331 47.6634L27.9457 48.4051C26.8101 49.0601 25.4113 49.0601 24.2757 48.4051L22.5181 47.3901L6.83427 38.3406C5.70015 37.6857 5 36.4741 5 35.1641V15.0352C5 13.7238 5.70015 12.5136 6.83427 11.8572L24.2757 1.7942C25.4098 1.13924 26.8087 1.13924 27.9457 1.7942L45.3857 11.8572C46.5212 12.5122 47.2199 13.7238 47.2199 15.0352V15.0366Z" stroke="#3A86FF" stroke-width="2.3029" shape-rendering="crispEdges"/>
</g>
<g filter="url(#filter3_d_36_247)">
<path d="M64.1079 47.2772V67.4062C64.1079 68.7161 63.4092 69.9263 62.2736 70.5827L46.1211 79.904L44.8336 80.6457C43.698 81.3007 42.2992 81.3007 41.1636 80.6457L39.406 79.6307L23.7222 70.5812C22.5881 69.9263 21.8879 68.7147 21.8879 67.4047V47.2758C21.8879 45.9644 22.5881 44.7542 23.7222 44.0978L41.1636 34.0348C42.2978 33.3798 43.6966 33.3798 44.8336 34.0348L62.2736 44.0978C63.4092 44.7528 64.1079 45.9644 64.1079 47.2758V47.2772Z" fill="#FFCC00"/>
<path d="M64.1079 47.2772V67.4062C64.1079 68.7161 63.4092 69.9263 62.2736 70.5827L46.1211 79.904L44.8336 80.6457C43.698 81.3007 42.2992 81.3007 41.1636 80.6457L39.406 79.6307L23.7222 70.5812C22.5881 69.9263 21.8879 68.7147 21.8879 67.4047V47.2758C21.8879 45.9644 22.5881 44.7542 23.7222 44.0978L41.1636 34.0348C42.2978 33.3798 43.6966 33.3798 44.8336 34.0348L62.2736 44.0978C63.4092 44.7528 64.1079 45.9644 64.1079 47.2758V47.2772Z" stroke="#FFCC00" stroke-width="2.3029"/>
</g>
<g filter="url(#filter4_d_36_247)">
<path d="M38.6822 66.1833C37.2851 66.1833 36.2872 65.8878 35.6885 65.2967C35.0974 64.7056 34.7903 63.7269 34.7673 62.3605C34.7519 61.5007 34.7404 60.5988 34.7328 59.6546C34.7251 58.7104 34.7212 57.7508 34.7212 56.7759C34.7212 55.801 34.7251 54.8415 34.7328 53.8973C34.7404 52.9454 34.7519 52.0358 34.7673 51.1684C34.7827 49.9708 35.0974 49.042 35.7115 48.3818C36.3256 47.714 37.312 47.3801 38.6707 47.3801C40.0218 47.3801 41.0005 47.6756 41.6069 48.2667C42.2134 48.8501 42.5396 49.825 42.5857 51.1914C42.5933 51.4601 42.5972 51.7825 42.5972 52.1586C42.5972 52.5271 42.5933 52.8955 42.5857 53.264C42.578 53.6248 42.5703 53.9434 42.5626 54.2197H40.0755C40.0832 53.8819 40.087 53.5096 40.087 53.1028C40.0947 52.696 40.0985 52.2891 40.0985 51.8823C40.0985 51.4677 40.0947 51.0916 40.087 50.7538C40.0793 50.3009 39.9565 49.967 39.7185 49.7521C39.4883 49.5371 39.139 49.4297 38.6707 49.4297C38.2025 49.4297 37.8532 49.5371 37.6229 49.7521C37.3926 49.967 37.2698 50.3009 37.2544 50.7538C37.2237 51.7287 37.2007 52.7228 37.1854 53.7361C37.1777 54.7417 37.1738 55.755 37.1738 56.7759C37.1738 57.7969 37.1777 58.814 37.1854 59.8273C37.2007 60.8406 37.2237 61.8308 37.2544 62.798C37.2698 63.2509 37.3926 63.5887 37.6229 63.8113C37.8609 64.0262 38.214 64.1337 38.6822 64.1337C39.1812 64.1337 39.5535 64.0262 39.7991 63.8113C40.0448 63.5887 40.1715 63.2509 40.1791 62.798C40.1868 62.4526 40.1906 62.0688 40.1906 61.6466C40.1983 61.2167 40.1983 60.7907 40.1906 60.3685C40.183 59.9463 40.1753 59.5624 40.1676 59.217H42.6663C42.6816 59.7236 42.6893 60.2495 42.6893 60.7945C42.697 61.3318 42.6931 61.8538 42.6778 62.3605C42.6317 63.7269 42.2978 64.7056 41.676 65.2967C41.0619 65.8878 40.064 66.1833 38.6822 66.1833ZM47.7539 66.1833C46.518 66.1833 45.6352 65.9146 45.1055 65.3773C44.5836 64.8399 44.2995 63.9572 44.2535 62.7289C44.2458 62.4526 44.242 62.1379 44.242 61.7847C44.2496 61.4316 44.2611 61.1476 44.2765 60.9327H46.4643C46.4566 61.3625 46.4527 61.754 46.4527 62.1072C46.4527 62.4526 46.4566 62.7443 46.4643 62.9823C46.4796 63.4659 46.5909 63.8036 46.7982 63.9955C47.0054 64.1874 47.324 64.2834 47.7539 64.2834C48.2528 64.2834 48.6098 64.1874 48.8247 63.9955C49.0473 63.8036 49.1625 63.4659 49.1702 62.9823C49.1702 62.775 49.1702 62.6215 49.1702 62.5217C49.1702 62.4142 49.1702 62.3144 49.1702 62.2223C49.1778 62.1225 49.1778 61.9767 49.1702 61.7847C49.1702 61.3856 49.1088 61.0708 48.9859 60.8406C48.8631 60.6026 48.6367 60.4337 48.3066 60.3339L46.9479 59.9194C46.3414 59.7275 45.8348 59.4934 45.4279 59.217C45.0211 58.933 44.714 58.5684 44.5068 58.1231C44.3072 57.6779 44.2036 57.1175 44.1959 56.442C44.1959 56.2731 44.1959 56.1119 44.1959 55.9584C44.1959 55.8049 44.1997 55.6437 44.2074 55.4748C44.2151 54.2235 44.4876 53.3292 45.0249 52.7919C45.57 52.2469 46.5218 51.9744 47.8805 51.9744C49.1318 51.9744 50.0107 52.2392 50.5174 52.7689C51.0317 53.2909 51.3157 54.1583 51.3694 55.3712C51.3771 55.6475 51.3771 55.9661 51.3694 56.3269C51.3694 56.68 51.3618 56.964 51.3464 57.1789H49.0781C49.0857 56.987 49.0896 56.7567 49.0896 56.4881C49.0972 56.2194 49.0972 55.9584 49.0896 55.7051C49.0896 55.4518 49.0857 55.2483 49.0781 55.0948C49.0627 54.6419 48.9667 54.3272 48.7902 54.1506C48.6213 53.9664 48.3181 53.8743 47.8805 53.8743C47.42 53.8743 47.1014 53.9664 46.9248 54.1506C46.7483 54.3272 46.6523 54.6419 46.637 55.0948C46.6293 55.3174 46.6216 55.4978 46.6139 55.636C46.6063 55.7665 46.6063 55.9699 46.6139 56.2463C46.6139 56.6761 46.6677 57.0293 46.7751 57.3056C46.8826 57.5819 47.1359 57.7815 47.5351 57.9044L48.7556 58.2383C49.6691 58.4686 50.3523 58.8447 50.8052 59.3667C51.2581 59.881 51.4846 60.6448 51.4846 61.6581C51.4846 61.8346 51.4808 62.0227 51.4731 62.2223C51.4731 62.4219 51.4692 62.6138 51.4616 62.798C51.4539 64.0032 51.166 64.8706 50.598 65.4003C50.0376 65.9223 49.0896 66.1833 47.7539 66.1833Z" fill="#2D2D2D"/>
</g>
<path d="M55.8843 52.3557C55.4109 52.3557 55.0681 52.2571 54.8557 52.0601C54.6433 51.8605 54.5307 51.533 54.5179 51.0775C54.5128 50.9138 54.5102 50.7654 54.5102 50.6323C54.5102 50.4967 54.5141 50.356 54.5218 50.2101H55.3508C55.3431 50.3099 55.338 50.4187 55.3355 50.5364C55.3355 50.6515 55.3355 50.7666 55.3355 50.8818C55.338 50.9944 55.3419 51.0942 55.347 51.1812C55.3598 51.3449 55.4058 51.4678 55.4851 51.5496C55.567 51.629 55.6924 51.6686 55.8613 51.6686C56.0302 51.6686 56.1543 51.629 56.2336 51.5496C56.3129 51.4678 56.3577 51.3449 56.3679 51.1812C56.3884 50.9048 56.3986 50.6374 56.3986 50.379C56.4012 50.118 56.3935 49.8557 56.3756 49.5922C56.3679 49.4412 56.3257 49.3299 56.2489 49.2582C56.1722 49.184 56.0596 49.1469 55.9112 49.1469C55.8037 49.1469 55.7116 49.1661 55.6348 49.2045C55.5581 49.2403 55.4979 49.2915 55.4544 49.358C55.4109 49.4246 55.3879 49.5052 55.3854 49.5998H54.5947V46.1493H57.1356V46.8863H55.4237V48.836H55.5696C55.6259 48.7286 55.7154 48.6377 55.8383 48.5635C55.9636 48.4893 56.112 48.4522 56.2835 48.4522C56.5854 48.4522 56.8106 48.552 56.959 48.7516C57.1074 48.9486 57.1906 49.2237 57.2085 49.5768C57.2162 49.7585 57.22 49.935 57.22 50.1065C57.2226 50.2754 57.2213 50.4417 57.2162 50.6054C57.2136 50.7667 57.2085 50.924 57.2008 51.0775C57.1752 51.382 57.1164 51.629 57.0243 51.8183C56.9321 52.0051 56.794 52.142 56.6097 52.229C56.4281 52.3134 56.1863 52.3557 55.8843 52.3557ZM59.3102 52.3557C58.8368 52.3557 58.4939 52.2571 58.2816 52.0601C58.0692 51.8605 57.9566 51.533 57.9438 51.0775C57.9387 50.9138 57.9361 50.7654 57.9361 50.6323C57.9361 50.4967 57.94 50.356 57.9476 50.2101H58.7767C58.769 50.3099 58.7639 50.4187 58.7613 50.5364C58.7613 50.6515 58.7613 50.7666 58.7613 50.8818C58.7639 50.9944 58.7677 51.0942 58.7728 51.1812C58.7856 51.3449 58.8317 51.4678 58.911 51.5496C58.9929 51.629 59.1183 51.6686 59.2872 51.6686C59.456 51.6686 59.5801 51.629 59.6595 51.5496C59.7388 51.4678 59.7836 51.3449 59.7938 51.1812C59.8143 50.9048 59.8245 50.6374 59.8245 50.379C59.8271 50.118 59.8194 49.8557 59.8015 49.5922C59.7938 49.4412 59.7516 49.3299 59.6748 49.2582C59.598 49.184 59.4855 49.1469 59.3371 49.1469C59.2296 49.1469 59.1375 49.1661 59.0607 49.2045C58.9839 49.2403 58.9238 49.2915 58.8803 49.358C58.8368 49.4246 58.8138 49.5052 58.8112 49.5998H58.0206V46.1493H60.5614V46.8863H58.8496V48.836H58.9955C59.0517 48.7286 59.1413 48.6377 59.2641 48.5635C59.3895 48.4893 59.5379 48.4522 59.7094 48.4522C60.0113 48.4522 60.2365 48.552 60.3849 48.7516C60.5333 48.9486 60.6164 49.2237 60.6344 49.5768C60.642 49.7585 60.6459 49.935 60.6459 50.1065C60.6484 50.2754 60.6471 50.4417 60.642 50.6054C60.6395 50.7667 60.6344 50.924 60.6267 51.0775C60.6011 51.382 60.5422 51.629 60.4501 51.8183C60.358 52.0051 60.2198 52.142 60.0356 52.229C59.8539 52.3134 59.6121 52.3557 59.3102 52.3557Z" fill="#2D2D2D"/>
<defs>
<filter id="filter0_d_36_247" x="13.1742" y="83.6913" width="25.9231" height="22.4687" filterUnits="userSpaceOnUse" color-interpolation-filters="sRGB">
<feFlood flood-opacity="0" result="BackgroundImageFix"/>
<feColorMatrix in="SourceAlpha" type="matrix" values="0 0 0 0 0 0 0 0 0 0 0 0 0 0 0 0 0 0 127 0" result="hardAlpha"/>
<feOffset dy="3.07054"/>
<feGaussianBlur stdDeviation="1.53527"/>
<feComposite in2="hardAlpha" operator="out"/>
<feColorMatrix type="matrix" values="0 0 0 0 0.117647 0 0 0 0 0.117647 0 0 0 0 0.117647 0 0 0 0.35 0"/>
<feBlend mode="normal" in2="BackgroundImageFix" result="effect1_dropShadow_36_247"/>
<feBlend mode="normal" in="SourceGraphic" in2="effect1_dropShadow_36_247" result="shape"/>
</filter>
<filter id="filter1_d_36_247" x="0.778032" y="65.4004" width="50.6639" height="56.0374" filterUnits="userSpaceOnUse" color-interpolation-filters="sRGB">
<feFlood flood-opacity="0" result="BackgroundImageFix"/>
<feColorMatrix in="SourceAlpha" type="matrix" values="0 0 0 0 0 0 0 0 0 0 0 0 0 0 0 0 0 0 127 0" result="hardAlpha"/>
<feOffset dy="3.07054"/>
<feGaussianBlur stdDeviation="1.53527"/>
<feComposite in2="hardAlpha" operator="out"/>
<feColorMatrix type="matrix" values="0 0 0 0 0.117647 0 0 0 0 0.117647 0 0 0 0 0.117647 0 0 0 0.35 0"/>
<feBlend mode="normal" in2="BackgroundImageFix" result="effect1_dropShadow_36_247"/>
<feBlend mode="normal" in="SourceGraphic" in2="effect1_dropShadow_36_247" result="shape"/>
</filter>
<filter id="filter2_d_36_247" x="0.778032" y="0.151489" width="50.6639" height="56.0374" filterUnits="userSpaceOnUse" color-interpolation-filters="sRGB">
<feFlood flood-opacity="0" result="BackgroundImageFix"/>
<feColorMatrix in="SourceAlpha" type="matrix" values="0 0 0 0 0 0 0 0 0 0 0 0 0 0 0 0 0 0 127 0" result="hardAlpha"/>
<feOffset dy="3.07054"/>
<feGaussianBlur stdDeviation="1.53527"/>
<feComposite in2="hardAlpha" operator="out"/>
<feColorMatrix type="matrix" values="0 0 0 0 0.117647 0 0 0 0 0.117647 0 0 0 0 0.117647 0 0 0 0.35 0"/>
<feBlend mode="normal" in2="BackgroundImageFix" result="effect1_dropShadow_36_247"/>
<feBlend mode="normal" in="SourceGraphic" in2="effect1_dropShadow_36_247" result="shape"/>
</filter>
<filter id="filter3_d_36_247" x="17.666" y="32.3921" width="50.6639" height="56.0374" filterUnits="userSpaceOnUse" color-interpolation-filters="sRGB">
<feFlood flood-opacity="0" result="BackgroundImageFix"/>
<feColorMatrix in="SourceAlpha" type="matrix" values="0 0 0 0 0 0 0 0 0 0 0 0 0 0 0 0 0 0 127 0" result="hardAlpha"/>
<feOffset dy="3.07054"/>
<feGaussianBlur stdDeviation="1.53527"/>
<feComposite in2="hardAlpha" operator="out"/>
<feColorMatrix type="matrix" values="0 0 0 0 0.117647 0 0 0 0 0.117647 0 0 0 0 0.117647 0 0 0 0.35 0"/>
<feBlend mode="normal" in2="BackgroundImageFix" result="effect1_dropShadow_36_247"/>
<feBlend mode="normal" in="SourceGraphic" in2="effect1_dropShadow_36_247" result="shape"/>
</filter>
<filter id="filter4_d_36_247" x="31.6507" y="47.3801" width="22.9044" height="24.9443" filterUnits="userSpaceOnUse" color-interpolation-filters="sRGB">
<feFlood flood-opacity="0" result="BackgroundImageFix"/>
<feColorMatrix in="SourceAlpha" type="matrix" values="0 0 0 0 0 0 0 0 0 0 0 0 0 0 0 0 0 0 127 0" result="hardAlpha"/>
<feOffset dy="3.07054"/>
<feGaussianBlur stdDeviation="1.53527"/>
<feComposite in2="hardAlpha" operator="out"/>
<feColorMatrix type="matrix" values="0 0 0 0 0.117647 0 0 0 0 0.117647 0 0 0 0 0.117647 0 0 0 0.35 0"/>
<feBlend mode="normal" in2="BackgroundImageFix" result="effect1_dropShadow_36_247"/>
<feBlend mode="normal" in="SourceGraphic" in2="effect1_dropShadow_36_247" result="shape"/>
</filter>
</defs>
</svg>
