<svg width="69" height="123" viewBox="0 0 69 123" fill="none" xmlns="http://www.w3.org/2000/svg">
<g filter="url(#filter0_d_36_279)">
<path d="M36.0268 84.3883V84.8489C35.5355 84.8642 35.167 84.9257 34.9214 85.0331C34.6757 85.1252 34.5068 85.3095 34.4147 85.5858C34.338 85.8468 34.2996 86.2613 34.2996 86.8294V98.2518C34.2996 98.8045 34.338 99.219 34.4147 99.4954C34.5068 99.7717 34.6757 99.9559 34.9214 100.048C35.167 100.14 35.5355 100.202 36.0268 100.232V100.693C35.5969 100.662 35.0519 100.647 34.3917 100.647C33.7469 100.631 33.0867 100.624 32.4112 100.624C31.6743 100.624 30.9834 100.631 30.3386 100.647C29.6938 100.647 29.1718 100.662 28.7726 100.693V100.232C29.2946 100.202 29.6861 100.14 29.9471 100.048C30.2234 99.9559 30.4077 99.7717 30.4998 99.4954C30.5919 99.219 30.638 98.8045 30.638 98.2518V85.7931H30.7992L25.088 100.716H24.7195L18.5017 85.8852V96.9161C18.5017 97.7605 18.5477 98.413 18.6398 98.8736C18.7319 99.3188 18.9315 99.6412 19.2386 99.8408C19.561 100.025 20.06 100.156 20.7355 100.232V100.693C20.4438 100.662 20.06 100.647 19.584 100.647C19.1081 100.631 18.6629 100.624 18.2483 100.624C17.8952 100.624 17.5344 100.631 17.166 100.647C16.7975 100.647 16.4905 100.662 16.2448 100.693V100.232C16.7361 100.156 17.1046 100.025 17.3502 99.8408C17.5958 99.6566 17.757 99.3572 17.8338 98.9427C17.9259 98.5128 17.972 97.9294 17.972 97.1925V86.8294C17.972 86.2613 17.9259 85.8468 17.8338 85.5858C17.757 85.3095 17.5882 85.1252 17.3272 85.0331C17.0815 84.9257 16.7207 84.8642 16.2448 84.8489V84.3883C16.4905 84.4037 16.7975 84.419 17.166 84.4344C17.5344 84.4497 17.8952 84.4574 18.2483 84.4574C18.9085 84.4574 19.5533 84.4497 20.1828 84.4344C20.8276 84.419 21.3956 84.4037 21.8869 84.3883L26.723 96.064L26.1473 96.5937L30.7761 84.4574C31.0371 84.4574 31.3058 84.4574 31.5822 84.4574C31.8585 84.4574 32.1349 84.4574 32.4112 84.4574C33.0867 84.4574 33.7469 84.4497 34.3917 84.4344C35.0519 84.419 35.5969 84.4037 36.0268 84.3883Z" fill="#1E1E1E"/>
</g>
<g filter="url(#filter1_d_36_279)">
<path d="M47.2199 80.9825V101.111C47.2199 102.421 46.5212 103.632 45.3857 104.288L29.2331 113.609L27.9457 114.351C26.8101 115.006 25.4113 115.006 24.2757 114.351L22.5181 113.336L6.83427 104.287C5.70015 103.632 5 102.42 5 101.11V80.9811C5 79.6697 5.70015 78.4596 6.83427 77.8032L24.2757 67.7401C25.4098 67.0852 26.8087 67.0852 27.9457 67.7401L45.3857 77.8032C46.5212 78.4581 47.2199 79.6697 47.2199 80.9811V80.9825Z" stroke="#2D2D2D" stroke-width="2.3029" shape-rendering="crispEdges"/>
</g>
<g filter="url(#filter2_d_36_279)">
<path d="M47.2199 15.7336V35.8626C47.2199 37.1725 46.5212 38.3827 45.3857 39.0391L29.2331 48.3604L27.9457 49.1021C26.8101 49.7571 25.4113 49.7571 24.2757 49.1021L22.5181 48.0872L6.83427 39.0377C5.70015 38.3827 5 37.1711 5 35.8612V15.7322C5 14.4208 5.70015 13.2107 6.83427 12.5542L24.2757 2.49122C25.4098 1.83626 26.8087 1.83626 27.9457 2.49122L45.3857 12.5542C46.5212 13.2092 47.2199 14.4208 47.2199 15.7322V15.7336Z" stroke="#2D2D2D" stroke-width="2.3029" shape-rendering="crispEdges"/>
</g>
<g filter="url(#filter3_d_36_279)">
<path d="M64.1079 47.9742V68.1032C64.1079 69.4131 63.4092 70.6233 62.2736 71.2797L46.1211 80.601L44.8336 81.3427C43.698 81.9977 42.2992 81.9977 41.1636 81.3427L39.406 80.3278L23.7222 71.2783C22.5881 70.6233 21.8879 69.4117 21.8879 68.1018V47.9728C21.8879 46.6614 22.5881 45.4513 23.7222 44.7949L41.1636 34.7318C42.2978 34.0769 43.6966 34.0769 44.8336 34.7318L62.2736 44.7949C63.4092 45.4498 64.1079 46.6614 64.1079 47.9728V47.9742Z" fill="#1E1E1E"/>
<path d="M64.1079 47.9742V68.1032C64.1079 69.4131 63.4092 70.6233 62.2736 71.2797L46.1211 80.601L44.8336 81.3427C43.698 81.9977 42.2992 81.9977 41.1636 81.3427L39.406 80.3278L23.7222 71.2783C22.5881 70.6233 21.8879 69.4117 21.8879 68.1018V47.9728C21.8879 46.6614 22.5881 45.4513 23.7222 44.7949L41.1636 34.7318C42.2978 34.0769 43.6966 34.0769 44.8336 34.7318L62.2736 44.7949C63.4092 45.4498 64.1079 46.6614 64.1079 47.9728V47.9742Z" stroke="#1E1E1E" stroke-width="2.3029"/>
</g>
<g filter="url(#filter4_d_36_279)">
<path d="M38.6822 66.8803C37.2851 66.8803 36.2872 66.5848 35.6884 65.9937C35.0974 65.4026 34.7903 64.4239 34.7673 63.0575C34.7519 62.1977 34.7404 61.2958 34.7327 60.3516C34.7251 59.4074 34.7212 58.4478 34.7212 57.473C34.7212 56.4981 34.7251 55.5385 34.7327 54.5943C34.7404 53.6425 34.7519 52.7328 34.7673 51.8654C34.7826 50.6679 35.0974 49.739 35.7115 49.0789C36.3256 48.411 37.312 48.0771 38.6707 48.0771C40.0217 48.0771 41.0005 48.3726 41.6069 48.9637C42.2133 49.5471 42.5396 50.522 42.5856 51.8884C42.5933 52.1571 42.5972 52.4795 42.5972 52.8556C42.5972 53.2241 42.5933 53.5926 42.5856 53.961C42.578 54.3218 42.5703 54.6404 42.5626 54.9167H40.0755C40.0832 54.579 40.087 54.2067 40.087 53.7998C40.0947 53.393 40.0985 52.9861 40.0985 52.5793C40.0985 52.1648 40.0947 51.7886 40.087 51.4509C40.0793 50.998 39.9565 50.664 39.7185 50.4491C39.4882 50.2342 39.139 50.1267 38.6707 50.1267C38.2025 50.1267 37.8532 50.2342 37.6229 50.4491C37.3926 50.664 37.2698 50.998 37.2544 51.4509C37.2237 52.4258 37.2007 53.4198 37.1853 54.4331C37.1777 55.4387 37.1738 56.452 37.1738 57.473C37.1738 58.4939 37.1777 59.511 37.1853 60.5243C37.2007 61.5376 37.2237 62.5278 37.2544 63.495C37.2698 63.948 37.3926 64.2857 37.6229 64.5083C37.8609 64.7233 38.214 64.8307 38.6822 64.8307C39.1812 64.8307 39.5535 64.7233 39.7991 64.5083C40.0448 64.2857 40.1714 63.948 40.1791 63.495C40.1868 63.1496 40.1906 62.7658 40.1906 62.3436C40.1983 61.9137 40.1983 61.4877 40.1906 61.0655C40.1829 60.6433 40.1753 60.2595 40.1676 59.914H42.6662C42.6816 60.4207 42.6893 60.9465 42.6893 61.4915C42.697 62.0289 42.6931 62.5509 42.6778 63.0575C42.6317 64.4239 42.2978 65.4026 41.676 65.9937C41.0619 66.5848 40.064 66.8803 38.6822 66.8803ZM47.7539 66.8803C46.518 66.8803 45.6352 66.6116 45.1055 66.0743C44.5835 65.537 44.2995 64.6542 44.2535 63.426C44.2458 63.1496 44.2419 62.8349 44.2419 62.4818C44.2496 62.1287 44.2611 61.8446 44.2765 61.6297H46.4642C46.4566 62.0596 46.4527 62.4511 46.4527 62.8042C46.4527 63.1496 46.4566 63.4413 46.4642 63.6793C46.4796 64.1629 46.5909 64.5006 46.7982 64.6926C47.0054 64.8845 47.324 64.9804 47.7539 64.9804C48.2528 64.9804 48.6098 64.8845 48.8247 64.6926C49.0473 64.5006 49.1625 64.1629 49.1702 63.6793C49.1702 63.472 49.1702 63.3185 49.1702 63.2187C49.1702 63.1112 49.1702 63.0114 49.1702 62.9193C49.1778 62.8195 49.1778 62.6737 49.1702 62.4818C49.1702 62.0826 49.1087 61.7679 48.9859 61.5376C48.8631 61.2996 48.6366 61.1307 48.3066 61.0309L46.9479 60.6164C46.3414 60.4245 45.8348 60.1904 45.4279 59.914C45.0211 59.63 44.714 59.2654 44.5068 58.8202C44.3072 58.3749 44.2036 57.8145 44.1959 57.139C44.1959 56.9702 44.1959 56.8089 44.1959 56.6554C44.1959 56.5019 44.1997 56.3407 44.2074 56.1718C44.2151 54.9206 44.4876 54.0263 45.0249 53.4889C45.5699 52.9439 46.5218 52.6714 47.8805 52.6714C49.1318 52.6714 50.0107 52.9362 50.5174 53.4659C51.0317 53.9879 51.3157 54.8553 51.3694 56.0682C51.3771 56.3445 51.3771 56.6631 51.3694 57.0239C51.3694 57.377 51.3618 57.661 51.3464 57.876H49.078C49.0857 57.6841 49.0896 57.4538 49.0896 57.1851C49.0972 56.9164 49.0972 56.6554 49.0896 56.4021C49.0896 56.1488 49.0857 55.9454 49.078 55.7918C49.0627 55.3389 48.9667 55.0242 48.7902 54.8476C48.6213 54.6634 48.3181 54.5713 47.8805 54.5713C47.4199 54.5713 47.1014 54.6634 46.9248 54.8476C46.7483 55.0242 46.6523 55.3389 46.637 55.7918C46.6293 56.0144 46.6216 56.1948 46.6139 56.333C46.6063 56.4635 46.6063 56.6669 46.6139 56.9433C46.6139 57.3732 46.6677 57.7263 46.7751 58.0026C46.8826 58.279 47.1359 58.4786 47.5351 58.6014L48.7556 58.9353C49.6691 59.1656 50.3523 59.5417 50.8052 60.0637C51.2581 60.578 51.4846 61.3418 51.4846 62.3551C51.4846 62.5317 51.4807 62.7197 51.4731 62.9193C51.4731 63.1189 51.4692 63.3108 51.4615 63.495C51.4539 64.7002 51.166 65.5677 50.598 66.0973C50.0376 66.6193 49.0896 66.8803 47.7539 66.8803Z" fill="#F5F5F5"/>
</g>
<path d="M55.8843 53.0527C55.4109 53.0527 55.068 52.9542 54.8557 52.7571C54.6433 52.5576 54.5307 52.23 54.5179 51.7746C54.5128 51.6108 54.5102 51.4624 54.5102 51.3293C54.5102 51.1937 54.5141 51.053 54.5217 50.9071H55.3508C55.3431 51.0069 55.338 51.1157 55.3354 51.2334C55.3354 51.3485 55.3354 51.4637 55.3354 51.5788C55.338 51.6914 55.3418 51.7912 55.347 51.8782C55.3597 52.042 55.4058 52.1648 55.4851 52.2467C55.567 52.326 55.6924 52.3656 55.8613 52.3656C56.0301 52.3656 56.1543 52.326 56.2336 52.2467C56.3129 52.1648 56.3577 52.042 56.3679 51.8782C56.3884 51.6018 56.3986 51.3345 56.3986 51.076C56.4012 50.815 56.3935 50.5527 56.3756 50.2892C56.3679 50.1382 56.3257 50.0269 56.2489 49.9553C56.1722 49.8811 56.0596 49.844 55.9112 49.844C55.8037 49.844 55.7116 49.8632 55.6348 49.9015C55.5581 49.9374 55.4979 49.9885 55.4544 50.0551C55.4109 50.1216 55.3879 50.2022 55.3853 50.2969H54.5947V46.8463H57.1355V47.5833H55.4237V49.5331H55.5696C55.6259 49.4256 55.7154 49.3348 55.8382 49.2606C55.9636 49.1864 56.112 49.1493 56.2835 49.1493C56.5854 49.1493 56.8106 49.249 56.959 49.4486C57.1074 49.6457 57.1906 49.9207 57.2085 50.2738C57.2161 50.4555 57.22 50.6321 57.22 50.8035C57.2225 50.9724 57.2213 51.1387 57.2161 51.3025C57.2136 51.4637 57.2085 51.621 57.2008 51.7746C57.1752 52.0791 57.1164 52.326 57.0242 52.5153C56.9321 52.7021 56.7939 52.839 56.6097 52.926C56.428 53.0105 56.1862 53.0527 55.8843 53.0527ZM59.3102 53.0527C58.8368 53.0527 58.4939 52.9542 58.2815 52.7571C58.0692 52.5576 57.9566 52.23 57.9438 51.7746C57.9387 51.6108 57.9361 51.4624 57.9361 51.3293C57.9361 51.1937 57.9399 51.053 57.9476 50.9071H58.7767C58.769 51.0069 58.7639 51.1157 58.7613 51.2334C58.7613 51.3485 58.7613 51.4637 58.7613 51.5788C58.7639 51.6914 58.7677 51.7912 58.7728 51.8782C58.7856 52.042 58.8317 52.1648 58.911 52.2467C58.9929 52.326 59.1183 52.3656 59.2871 52.3656C59.456 52.3656 59.5801 52.326 59.6594 52.2467C59.7388 52.1648 59.7835 52.042 59.7938 51.8782C59.8142 51.6018 59.8245 51.3345 59.8245 51.076C59.827 50.815 59.8194 50.5527 59.8015 50.2892C59.7938 50.1382 59.7516 50.0269 59.6748 49.9553C59.598 49.8811 59.4854 49.844 59.337 49.844C59.2296 49.844 59.1375 49.8632 59.0607 49.9015C58.9839 49.9374 58.9238 49.9885 58.8803 50.0551C58.8368 50.1216 58.8138 50.2022 58.8112 50.2969H58.0205V46.8463H60.5614V47.5833H58.8496V49.5331H58.9954C59.0517 49.4256 59.1413 49.3348 59.2641 49.2606C59.3895 49.1864 59.5379 49.1493 59.7093 49.1493C60.0113 49.1493 60.2364 49.249 60.3849 49.4486C60.5333 49.6457 60.6164 49.9207 60.6343 50.2738C60.642 50.4555 60.6459 50.6321 60.6459 50.8035C60.6484 50.9724 60.6471 51.1387 60.642 51.3025C60.6395 51.4637 60.6343 51.621 60.6267 51.7746C60.6011 52.0791 60.5422 52.326 60.4501 52.5153C60.358 52.7021 60.2198 52.839 60.0356 52.926C59.8539 53.0105 59.6121 53.0527 59.3102 53.0527Z" fill="#F5F5F5"/>
<defs>
<filter id="filter0_d_36_279" x="13.1743" y="84.3883" width="25.923" height="22.4687" filterUnits="userSpaceOnUse" color-interpolation-filters="sRGB">
<feFlood flood-opacity="0" result="BackgroundImageFix"/>
<feColorMatrix in="SourceAlpha" type="matrix" values="0 0 0 0 0 0 0 0 0 0 0 0 0 0 0 0 0 0 127 0" result="hardAlpha"/>
<feOffset dy="3.07054"/>
<feGaussianBlur stdDeviation="1.53527"/>
<feComposite in2="hardAlpha" operator="out"/>
<feColorMatrix type="matrix" values="0 0 0 0 0.117647 0 0 0 0 0.117647 0 0 0 0 0.117647 0 0 0 0.35 0"/>
<feBlend mode="normal" in2="BackgroundImageFix" result="effect1_dropShadow_36_279"/>
<feBlend mode="normal" in="SourceGraphic" in2="effect1_dropShadow_36_279" result="shape"/>
</filter>
<filter id="filter1_d_36_279" x="0.778002" y="66.0974" width="50.6639" height="56.0374" filterUnits="userSpaceOnUse" color-interpolation-filters="sRGB">
<feFlood flood-opacity="0" result="BackgroundImageFix"/>
<feColorMatrix in="SourceAlpha" type="matrix" values="0 0 0 0 0 0 0 0 0 0 0 0 0 0 0 0 0 0 127 0" result="hardAlpha"/>
<feOffset dy="3.07054"/>
<feGaussianBlur stdDeviation="1.53527"/>
<feComposite in2="hardAlpha" operator="out"/>
<feColorMatrix type="matrix" values="0 0 0 0 0.117647 0 0 0 0 0.117647 0 0 0 0 0.117647 0 0 0 0.35 0"/>
<feBlend mode="normal" in2="BackgroundImageFix" result="effect1_dropShadow_36_279"/>
<feBlend mode="normal" in="SourceGraphic" in2="effect1_dropShadow_36_279" result="shape"/>
</filter>
<filter id="filter2_d_36_279" x="0.778002" y="0.848511" width="50.6639" height="56.0374" filterUnits="userSpaceOnUse" color-interpolation-filters="sRGB">
<feFlood flood-opacity="0" result="BackgroundImageFix"/>
<feColorMatrix in="SourceAlpha" type="matrix" values="0 0 0 0 0 0 0 0 0 0 0 0 0 0 0 0 0 0 127 0" result="hardAlpha"/>
<feOffset dy="3.07054"/>
<feGaussianBlur stdDeviation="1.53527"/>
<feComposite in2="hardAlpha" operator="out"/>
<feColorMatrix type="matrix" values="0 0 0 0 0.117647 0 0 0 0 0.117647 0 0 0 0 0.117647 0 0 0 0.35 0"/>
<feBlend mode="normal" in2="BackgroundImageFix" result="effect1_dropShadow_36_279"/>
<feBlend mode="normal" in="SourceGraphic" in2="effect1_dropShadow_36_279" result="shape"/>
</filter>
<filter id="filter3_d_36_279" x="17.6659" y="33.0891" width="50.6639" height="56.0374" filterUnits="userSpaceOnUse" color-interpolation-filters="sRGB">
<feFlood flood-opacity="0" result="BackgroundImageFix"/>
<feColorMatrix in="SourceAlpha" type="matrix" values="0 0 0 0 0 0 0 0 0 0 0 0 0 0 0 0 0 0 127 0" result="hardAlpha"/>
<feOffset dy="3.07054"/>
<feGaussianBlur stdDeviation="1.53527"/>
<feComposite in2="hardAlpha" operator="out"/>
<feColorMatrix type="matrix" values="0 0 0 0 0.117647 0 0 0 0 0.117647 0 0 0 0 0.117647 0 0 0 0.35 0"/>
<feBlend mode="normal" in2="BackgroundImageFix" result="effect1_dropShadow_36_279"/>
<feBlend mode="normal" in="SourceGraphic" in2="effect1_dropShadow_36_279" result="shape"/>
</filter>
<filter id="filter4_d_36_279" x="31.6507" y="48.0771" width="22.9044" height="24.9443" filterUnits="userSpaceOnUse" color-interpolation-filters="sRGB">
<feFlood flood-opacity="0" result="BackgroundImageFix"/>
<feColorMatrix in="SourceAlpha" type="matrix" values="0 0 0 0 0 0 0 0 0 0 0 0 0 0 0 0 0 0 127 0" result="hardAlpha"/>
<feOffset dy="3.07054"/>
<feGaussianBlur stdDeviation="1.53527"/>
<feComposite in2="hardAlpha" operator="out"/>
<feColorMatrix type="matrix" values="0 0 0 0 0.117647 0 0 0 0 0.117647 0 0 0 0 0.117647 0 0 0 0.35 0"/>
<feBlend mode="normal" in2="BackgroundImageFix" result="effect1_dropShadow_36_279"/>
<feBlend mode="normal" in="SourceGraphic" in2="effect1_dropShadow_36_279" result="shape"/>
</filter>
</defs>
</svg>
