<svg width="508" height="165" viewBox="0 0 508 165" fill="none" xmlns="http://www.w3.org/2000/svg">
<g filter="url(#filter0_d_39_221)">
<path d="M179.462 74.8342V76.6645C177.509 76.7255 176.045 76.9695 175.069 77.3966C174.093 77.7626 173.422 78.4947 173.056 79.5929C172.751 80.6301 172.598 82.2773 172.598 84.5347V129.926C172.598 132.122 172.751 133.769 173.056 134.867C173.422 135.966 174.093 136.698 175.069 137.064C176.045 137.43 177.509 137.674 179.462 137.796V139.626C177.753 139.504 175.588 139.443 172.964 139.443C170.402 139.382 167.778 139.352 165.094 139.352C162.165 139.352 159.42 139.382 156.858 139.443C154.295 139.443 152.221 139.504 150.635 139.626V137.796C152.709 137.674 154.265 137.43 155.302 137.064C156.4 136.698 157.132 135.966 157.498 134.867C157.864 133.769 158.047 132.122 158.047 129.926V80.4165H158.688L135.992 139.718H134.528L109.819 80.7826V124.618C109.819 127.973 110.002 130.566 110.369 132.396C110.735 134.166 111.528 135.447 112.748 136.24C114.029 136.972 116.012 137.491 118.696 137.796V139.626C117.537 139.504 116.012 139.443 114.121 139.443C112.229 139.382 110.46 139.352 108.813 139.352C107.41 139.352 105.976 139.382 104.512 139.443C103.047 139.443 101.827 139.504 100.851 139.626V137.796C102.803 137.491 104.268 136.972 105.244 136.24C106.22 135.508 106.861 134.318 107.166 132.671C107.532 130.963 107.715 128.644 107.715 125.716V84.5347C107.715 82.2773 107.532 80.6301 107.166 79.5929C106.861 78.4947 106.189 77.7626 105.152 77.3966C104.176 76.9695 102.742 76.7255 100.851 76.6645V74.8342C101.827 74.8952 103.047 74.9562 104.512 75.0172C105.976 75.0782 107.41 75.1087 108.813 75.1087C111.436 75.1087 113.999 75.0782 116.5 75.0172C119.062 74.9562 121.32 74.8952 123.272 74.8342L142.49 121.232L140.202 123.337L158.596 75.1087C159.634 75.1087 160.701 75.1087 161.799 75.1087C162.898 75.1087 163.996 75.1087 165.094 75.1087C167.778 75.1087 170.402 75.0782 172.964 75.0172C175.588 74.9562 177.753 74.8952 179.462 74.8342ZM243.865 74.8342V76.6645C241.913 76.9085 240.418 77.4271 239.381 78.2202C238.405 78.9523 237.764 80.142 237.459 81.7892C237.154 83.4365 237.002 85.7548 237.002 88.7443V112.996C237.002 116.961 236.727 120.591 236.178 123.886C235.629 127.18 234.653 130.017 233.25 132.396C231.663 135.02 229.345 137.094 226.295 138.619C223.244 140.145 219.37 140.907 214.672 140.907C211.866 140.907 208.998 140.572 206.07 139.901C203.142 139.291 200.518 138.101 198.2 136.332C196.248 134.684 194.753 132.824 193.716 130.749C192.678 128.675 191.977 126.235 191.611 123.428C191.245 120.561 191.062 117.175 191.062 113.27V84.5347C191.062 82.2773 190.879 80.6301 190.513 79.5929C190.208 78.4947 189.567 77.7626 188.591 77.3966C187.615 76.9695 186.15 76.7255 184.198 76.6645V74.8342C185.723 74.8952 187.767 74.9562 190.33 75.0172C192.953 75.0782 195.668 75.1087 198.474 75.1087C201.281 75.1087 203.965 75.0782 206.528 75.0172C209.151 74.9562 211.317 74.8952 213.025 74.8342V76.6645C210.951 76.7255 209.365 76.9695 208.266 77.3966C207.229 77.7626 206.528 78.4947 206.162 79.5929C205.796 80.6301 205.612 82.2773 205.612 84.5347V119.035C205.612 122.086 205.796 124.801 206.162 127.18C206.589 129.499 207.26 131.451 208.175 133.037C209.151 134.562 210.463 135.722 212.11 136.515C213.757 137.308 215.801 137.704 218.241 137.704C222.512 137.704 225.837 136.698 228.216 134.684C230.657 132.671 232.365 129.895 233.341 126.357C234.378 122.757 234.897 118.639 234.897 114.002V89.8425C234.897 86.487 234.683 83.9246 234.256 82.1553C233.829 80.325 232.975 79.0133 231.694 78.2202C230.474 77.4271 228.582 76.9085 226.02 76.6645V74.8342C227.179 74.8952 228.705 74.9562 230.596 75.0172C232.487 75.0782 234.256 75.1087 235.904 75.1087C237.368 75.1087 238.802 75.0782 240.205 75.0172C241.669 74.9562 242.889 74.8952 243.865 74.8342ZM271.544 73.6445C275.144 73.6445 277.92 74.0411 279.872 74.8342C281.824 75.5663 283.502 76.3594 284.905 77.2135C285.637 77.6406 286.217 77.9762 286.644 78.2202C287.132 78.4032 287.589 78.4947 288.017 78.4947C288.627 78.4947 289.054 78.1592 289.298 77.4881C289.603 76.817 289.847 75.8103 290.03 74.4681H292.135C292.074 75.6273 291.982 77.0305 291.86 78.6778C291.799 80.264 291.738 82.3688 291.677 84.9922C291.677 87.6156 291.677 91.0627 291.677 95.3333H289.572C289.328 92.1608 288.596 89.0799 287.376 86.0904C286.156 83.1009 284.417 80.6606 282.16 78.7693C279.963 76.817 277.248 75.8408 274.015 75.8408C271.086 75.8408 268.677 76.6645 266.785 78.3117C264.894 79.959 263.948 82.2468 263.948 85.1753C263.948 87.6156 264.558 89.7205 265.779 91.4897C266.999 93.198 268.768 94.8757 271.086 96.523C273.466 98.1702 276.333 100.153 279.689 102.471C282.617 104.363 285.241 106.254 287.559 108.145C289.877 110.037 291.738 112.172 293.141 114.551C294.545 116.931 295.246 119.768 295.246 123.062C295.246 127.089 294.178 130.414 292.043 133.037C289.969 135.66 287.223 137.643 283.807 138.986C280.39 140.267 276.638 140.907 272.551 140.907C268.768 140.907 265.748 140.541 263.491 139.809C261.233 139.077 259.342 138.314 257.817 137.521C256.475 136.667 255.438 136.24 254.705 136.24C254.095 136.24 253.638 136.576 253.333 137.247C253.089 137.918 252.875 138.924 252.692 140.267H250.587C250.709 138.802 250.77 137.094 250.77 135.142C250.831 133.19 250.862 130.658 250.862 127.546C250.923 124.374 250.953 120.378 250.953 115.558H253.058C253.302 119.585 253.973 123.367 255.072 126.906C256.231 130.383 257.969 133.19 260.288 135.325C262.667 137.46 265.809 138.528 269.714 138.528C271.849 138.528 273.74 138.162 275.388 137.43C277.096 136.637 278.469 135.477 279.506 133.952C280.543 132.427 281.061 130.536 281.061 128.278C281.061 125.716 280.451 123.489 279.231 121.598C278.072 119.707 276.455 117.937 274.381 116.29C272.368 114.643 270.019 112.965 267.334 111.257C264.467 109.365 261.783 107.474 259.281 105.583C256.78 103.692 254.766 101.526 253.241 99.0854C251.777 96.645 251.045 93.7471 251.045 90.3916C251.045 86.548 251.991 83.406 253.882 80.9656C255.834 78.4642 258.366 76.6339 261.477 75.4748C264.65 74.2546 268.005 73.6445 271.544 73.6445ZM351.068 74.8342C350.824 77.5186 350.641 80.1115 350.519 82.6129C350.458 85.1142 350.428 87.036 350.428 88.3782C350.428 89.5984 350.458 90.7576 350.519 91.8558C350.58 92.9539 350.641 93.8691 350.702 94.6012H348.597C347.987 90.1475 347.042 86.6395 345.76 84.0771C344.479 81.4537 342.802 79.6234 340.727 78.5862C338.714 77.4881 336.335 76.939 333.589 76.939H329.837C328.068 76.939 326.726 77.0915 325.81 77.3966C324.895 77.7016 324.285 78.3117 323.98 79.2268C323.675 80.142 323.523 81.5452 323.523 83.4365V131.024C323.523 132.915 323.675 134.318 323.98 135.233C324.285 136.149 324.895 136.759 325.81 137.064C326.726 137.369 328.068 137.521 329.837 137.521H334.321C337.067 137.521 339.477 136.942 341.551 135.783C343.686 134.562 345.486 132.519 346.95 129.651C348.475 126.784 349.635 122.91 350.428 118.029H352.533C352.349 119.981 352.258 122.543 352.258 125.716C352.258 127.119 352.288 129.102 352.349 131.664C352.41 134.227 352.594 136.881 352.899 139.626C349.787 139.504 346.279 139.443 342.374 139.443C338.47 139.382 334.992 139.352 331.942 139.352C330.417 139.352 328.464 139.352 326.085 139.352C323.706 139.352 321.143 139.382 318.398 139.443C315.652 139.443 312.876 139.474 310.07 139.535C307.264 139.535 304.61 139.565 302.108 139.626V137.796C304.061 137.674 305.525 137.43 306.501 137.064C307.477 136.698 308.118 135.966 308.423 134.867C308.789 133.769 308.972 132.122 308.972 129.926V84.5347C308.972 82.2773 308.789 80.6301 308.423 79.5929C308.118 78.4947 307.447 77.7626 306.409 77.3966C305.433 76.9695 304 76.7255 302.108 76.6645V74.8342C304.61 74.8952 307.264 74.9562 310.07 75.0172C312.876 75.0172 315.652 75.0477 318.398 75.1087C321.143 75.1087 323.706 75.1087 326.085 75.1087C328.464 75.1087 330.417 75.1087 331.942 75.1087C334.748 75.1087 337.921 75.1087 341.459 75.1087C345.059 75.0477 348.262 74.9562 351.068 74.8342ZM336.792 106.132C336.792 106.132 336.792 106.437 336.792 107.047C336.792 107.657 336.792 107.962 336.792 107.962H320.777C320.777 107.962 320.777 107.657 320.777 107.047C320.777 106.437 320.777 106.132 320.777 106.132H336.792ZM339.446 94.0521C339.202 97.5296 339.08 100.184 339.08 102.014C339.141 103.844 339.171 105.522 339.171 107.047C339.171 108.572 339.202 110.25 339.263 112.08C339.324 113.911 339.477 116.565 339.721 120.042H337.616C337.311 117.907 336.731 115.924 335.877 114.094C335.084 112.263 333.925 110.799 332.399 109.701C330.874 108.542 328.891 107.962 326.451 107.962V106.132C328.281 106.132 329.837 105.766 331.118 105.034C332.399 104.241 333.437 103.234 334.23 102.014C335.084 100.733 335.755 99.3904 336.243 97.9872C336.731 96.584 337.097 95.2723 337.341 94.0521H339.446ZM418.403 74.8342V76.6645C416.451 76.9085 414.956 77.4271 413.919 78.2202C412.943 78.9523 412.302 80.142 411.997 81.7892C411.692 83.4365 411.54 85.7548 411.54 88.7443V112.996C411.54 116.961 411.265 120.591 410.716 123.886C410.167 127.18 409.191 130.017 407.788 132.396C406.201 135.02 403.883 137.094 400.833 138.619C397.782 140.145 393.908 140.907 389.21 140.907C386.404 140.907 383.536 140.572 380.608 139.901C377.68 139.291 375.056 138.101 372.738 136.332C370.786 134.684 369.291 132.824 368.254 130.749C367.216 128.675 366.515 126.235 366.149 123.428C365.783 120.561 365.6 117.175 365.6 113.27V84.5347C365.6 82.2773 365.417 80.6301 365.051 79.5929C364.746 78.4947 364.105 77.7626 363.129 77.3966C362.153 76.9695 360.688 76.7255 358.736 76.6645V74.8342C360.261 74.8952 362.305 74.9562 364.868 75.0172C367.491 75.0782 370.206 75.1087 373.012 75.1087C375.819 75.1087 378.503 75.0782 381.066 75.0172C383.689 74.9562 385.855 74.8952 387.563 74.8342V76.6645C385.489 76.7255 383.903 76.9695 382.804 77.3966C381.767 77.7626 381.066 78.4947 380.7 79.5929C380.333 80.6301 380.15 82.2773 380.15 84.5347V119.035C380.15 122.086 380.333 124.801 380.7 127.18C381.127 129.499 381.798 131.451 382.713 133.037C383.689 134.562 385.001 135.722 386.648 136.515C388.295 137.308 390.339 137.704 392.779 137.704C397.05 137.704 400.375 136.698 402.754 134.684C405.195 132.671 406.903 129.895 407.879 126.357C408.916 122.757 409.435 118.639 409.435 114.002V89.8425C409.435 86.487 409.221 83.9246 408.794 82.1553C408.367 80.325 407.513 79.0133 406.232 78.2202C405.012 77.4271 403.12 76.9085 400.558 76.6645V74.8342C401.717 74.8952 403.242 74.9562 405.134 75.0172C407.025 75.0782 408.794 75.1087 410.442 75.1087C411.906 75.1087 413.34 75.0782 414.743 75.0172C416.207 74.9562 417.427 74.8952 418.403 74.8342ZM501.906 74.8342V76.6645C499.953 76.7255 498.489 76.9695 497.513 77.3966C496.537 77.7626 495.866 78.4947 495.5 79.5929C495.195 80.6301 495.042 82.2773 495.042 84.5347V129.926C495.042 132.122 495.195 133.769 495.5 134.867C495.866 135.966 496.537 136.698 497.513 137.064C498.489 137.43 499.953 137.674 501.906 137.796V139.626C500.197 139.504 498.031 139.443 495.408 139.443C492.846 139.382 490.222 139.352 487.538 139.352C484.609 139.352 481.864 139.382 479.302 139.443C476.739 139.443 474.665 139.504 473.079 139.626V137.796C475.153 137.674 476.709 137.43 477.746 137.064C478.844 136.698 479.576 135.966 479.942 134.867C480.308 133.769 480.491 132.122 480.491 129.926V80.4165H481.132L458.436 139.718H456.972L432.263 80.7826V124.618C432.263 127.973 432.446 130.566 432.812 132.396C433.179 134.166 433.972 135.447 435.192 136.24C436.473 136.972 438.456 137.491 441.14 137.796V139.626C439.981 139.504 438.456 139.443 436.565 139.443C434.673 139.382 432.904 139.352 431.257 139.352C429.854 139.352 428.42 139.382 426.956 139.443C425.491 139.443 424.271 139.504 423.295 139.626V137.796C425.247 137.491 426.712 136.972 427.688 136.24C428.664 135.508 429.304 134.318 429.609 132.671C429.976 130.963 430.159 128.644 430.159 125.716V84.5347C430.159 82.2773 429.976 80.6301 429.609 79.5929C429.304 78.4947 428.633 77.7626 427.596 77.3966C426.62 76.9695 425.186 76.7255 423.295 76.6645V74.8342C424.271 74.8952 425.491 74.9562 426.956 75.0172C428.42 75.0782 429.854 75.1087 431.257 75.1087C433.88 75.1087 436.443 75.0782 438.944 75.0172C441.506 74.9562 443.764 74.8952 445.716 74.8342L464.934 121.232L462.646 123.337L481.04 75.1087C482.078 75.1087 483.145 75.1087 484.243 75.1087C485.342 75.1087 486.44 75.1087 487.538 75.1087C490.222 75.1087 492.846 75.0782 495.408 75.0172C498.031 74.9562 500.197 74.8952 501.906 74.8342Z" fill="#1E1E1E"/>
</g>
<path d="M113.065 61.4698C111.311 61.4698 110.045 61.0656 109.267 60.2573C108.505 59.4336 108.108 58.0914 108.078 56.2307C108.032 53.8513 108.001 51.5711 107.986 49.39C107.971 47.1936 107.963 45.0202 107.963 42.8696C107.963 40.719 107.971 38.5456 107.986 36.3492C108.001 34.1529 108.032 31.8727 108.078 29.5086C108.108 27.724 108.505 26.4123 109.267 25.5735C110.045 24.7346 111.296 24.3151 113.019 24.3151C114.804 24.3151 116.093 24.7193 116.886 25.5277C117.694 26.3208 118.121 27.6478 118.167 29.5086C118.182 30.1187 118.19 30.9042 118.19 31.865C118.205 32.8107 118.205 33.7563 118.19 34.702C118.19 35.6476 118.182 36.4179 118.167 37.0127H116.085C116.1 36.1738 116.108 35.3197 116.108 34.4503C116.123 33.5809 116.123 32.7116 116.108 31.8422C116.108 30.9575 116.1 30.0958 116.085 29.2569C116.07 28.0977 115.833 27.2893 115.376 26.8318C114.918 26.3742 114.133 26.1454 113.019 26.1454C112.013 26.1454 111.288 26.3742 110.846 26.8318C110.419 27.2893 110.19 28.0977 110.16 29.2569C110.114 31.6973 110.076 34.0309 110.045 36.2577C110.03 38.4846 110.022 40.6885 110.022 42.8696C110.022 45.0354 110.03 47.2394 110.045 49.4815C110.076 51.7236 110.114 54.0572 110.16 56.4823C110.19 57.6262 110.426 58.4422 110.869 58.9303C111.311 59.4031 112.043 59.6396 113.065 59.6396C114.224 59.6396 115.04 59.4031 115.513 58.9303C116.001 58.4422 116.253 57.6262 116.268 56.4823C116.283 55.5824 116.291 54.6597 116.291 53.714C116.291 52.7531 116.283 51.7999 116.268 50.8542C116.253 49.9086 116.238 48.9858 116.222 48.0859H118.304C118.35 49.5196 118.381 50.8771 118.396 52.1583C118.411 53.4395 118.396 54.7969 118.35 56.2307C118.304 58.0914 117.87 59.4336 117.046 60.2573C116.238 61.0656 114.911 61.4698 113.065 61.4698ZM137.267 61.4241C135.452 61.4241 134.148 61.0275 133.355 60.2344C132.577 59.4413 132.173 58.1296 132.143 56.2993C132.097 53.9504 132.059 51.6702 132.028 49.4586C132.013 47.2318 132.005 45.0354 132.005 42.8696C132.005 40.6885 132.013 38.4922 132.028 36.2806C132.059 34.069 132.097 31.7812 132.143 29.417C132.173 27.5715 132.577 26.2522 133.355 25.4591C134.148 24.6659 135.452 24.2694 137.267 24.2694C139.082 24.2694 140.386 24.6659 141.18 25.4591C141.973 26.2522 142.377 27.5715 142.392 29.417C142.423 31.7812 142.446 34.0766 142.461 36.3035C142.476 38.5151 142.484 40.7038 142.484 42.8696C142.484 45.0354 142.476 47.2318 142.461 49.4586C142.446 51.6702 142.423 53.9504 142.392 56.2993C142.377 58.1296 141.973 59.4413 141.18 60.2344C140.386 61.0275 139.082 61.4241 137.267 61.4241ZM137.267 59.5938C138.366 59.5938 139.143 59.3726 139.601 58.9303C140.059 58.4728 140.295 57.6796 140.31 56.551C140.371 54.1411 140.409 51.7922 140.425 49.5044C140.44 47.2165 140.447 44.9592 140.447 42.7323C140.447 40.4902 140.432 38.2482 140.402 36.0061C140.371 33.764 140.341 31.4837 140.31 29.1654C140.295 28.0215 140.059 27.2283 139.601 26.786C139.143 26.3285 138.366 26.0997 137.267 26.0997C136.184 26.0997 135.414 26.3285 134.957 26.786C134.499 27.2283 134.255 28.0215 134.225 29.1654C134.164 31.4837 134.118 33.764 134.087 36.0061C134.057 38.2482 134.042 40.4902 134.042 42.7323C134.057 44.9592 134.08 47.2165 134.11 49.5044C134.141 51.7922 134.179 54.1411 134.225 56.551C134.255 57.6796 134.499 58.4728 134.957 58.9303C135.414 59.3726 136.184 59.5938 137.267 59.5938ZM156.837 61.1495V24.5439H161.047L163.038 39.781L164.731 59.0447H165.508L167.156 39.781L169.169 24.5439H173.379V61.1495H171.274V50.1679L171.617 26.4657H170.633L168.094 50.6941L166.721 60.9665H163.472L162.145 50.6941L159.583 26.4657H158.645L158.942 50.1679V61.1495H156.837ZM188.118 61.1495V24.5439H192.328L194.319 39.781L196.012 59.0447H196.789L198.437 39.781L200.45 24.5439H204.66V61.1495H202.555V50.1679L202.898 26.4657H201.914L199.375 50.6941L198.002 60.9665H194.753L193.426 50.6941L190.864 26.4657H189.926L190.223 50.1679V61.1495H188.118ZM224.135 61.4241C222.351 61.4241 221.07 61.0275 220.292 60.2344C219.514 59.4413 219.11 58.1296 219.079 56.2993C219.018 51.0067 218.988 45.7142 218.988 40.4216C218.988 35.1291 219.018 29.8365 219.079 24.5439H221.161C221.131 28.0672 221.1 31.621 221.07 35.2053C221.054 38.7744 221.047 42.3434 221.047 45.9125C221.062 49.4662 221.085 53.0124 221.115 56.551C221.115 57.6186 221.359 58.3965 221.847 58.8846C222.335 59.3574 223.098 59.5938 224.135 59.5938C225.172 59.5938 225.92 59.3574 226.377 58.8846C226.85 58.3965 227.087 57.6186 227.087 56.551C227.117 53.0124 227.14 49.4662 227.155 45.9125C227.17 42.3434 227.17 38.7744 227.155 35.2053C227.155 31.621 227.132 28.0672 227.087 24.5439H229.169C229.23 29.8365 229.26 35.1291 229.26 40.4216C229.26 45.7142 229.23 51.0067 229.169 56.2993C229.153 58.1296 228.749 59.4413 227.956 60.2344C227.178 61.0275 225.905 61.4241 224.135 61.4241ZM243.576 61.1495V24.5439H247.579L249.432 36.1205L252.704 59.2277H253.665L253.345 37.15L253.23 24.5439H255.289V61.1495H251.194L249.044 47.7427L246.207 26.4657H245.223L245.497 47.1021L245.612 61.1495H243.576ZM270.031 61.1495V24.5439H272.113V61.1495H270.031ZM288.916 61.1495V26.4657H284.546V24.5439H295.345V26.4657H290.998V61.1495H288.916ZM310.813 61.1495V51.3575V51.3118L306.283 24.5439H308.433L310.149 35.2511L311.522 45.6379H312.208L313.558 35.2511L315.274 24.5439H317.47L312.895 51.3347V51.3804V61.1495H310.813ZM354.151 61.4241C352.351 61.4241 351.055 61.0199 350.262 60.2115C349.468 59.3879 349.034 58.0457 348.958 56.1849C348.942 55.1325 348.927 54.1945 348.912 53.3708C348.912 52.5472 348.919 51.7236 348.935 50.9C348.95 50.0611 348.973 49.1078 349.003 48.0402H351.017C350.956 49.4434 350.925 50.8542 350.925 52.2727C350.925 53.6759 350.956 55.0639 351.017 56.4366C351.062 57.55 351.322 58.3584 351.794 58.8617C352.267 59.3498 353.038 59.5938 354.105 59.5938C355.158 59.5938 355.905 59.3498 356.347 58.8617C356.805 58.3584 357.057 57.55 357.102 56.4366C357.148 55.4909 357.171 54.6597 357.171 53.9428C357.186 53.2259 357.186 52.4862 357.171 51.7236C357.156 50.961 357.133 50.0535 357.102 49.0011C357.087 47.7351 356.942 46.6903 356.668 45.8667C356.393 45.0278 355.798 44.4864 354.883 44.2423L352.824 43.7161C351.756 43.4568 350.948 43.0603 350.399 42.5264C349.865 41.9773 349.499 41.2452 349.301 40.3301C349.102 39.415 348.98 38.271 348.935 36.8983C348.919 35.8307 348.919 34.6334 348.935 33.3064C348.95 31.9642 348.965 30.6754 348.98 29.4399C348.996 28.2045 349.171 27.2055 349.507 26.4428C349.857 25.6802 350.406 25.1311 351.154 24.7956C351.901 24.4448 352.885 24.2694 354.105 24.2694C355.829 24.2694 357.072 24.6736 357.834 25.4819C358.597 26.2903 359.001 27.6249 359.047 29.4857C359.077 30.3703 359.093 31.4685 359.093 32.7802C359.093 34.0766 359.077 35.4722 359.047 36.967H357.011C357.057 35.6858 357.079 34.3969 357.079 33.1005C357.095 31.804 357.079 30.5152 357.034 29.234C356.988 28.1359 356.736 27.3427 356.279 26.8547C355.821 26.3513 355.081 26.0997 354.059 26.0997C353.007 26.0997 352.26 26.3513 351.817 26.8547C351.375 27.3427 351.123 28.1359 351.062 29.234C351.001 30.5 350.971 31.7735 350.971 33.0547C350.986 34.3207 351.017 35.6019 351.062 36.8983C351.093 38.4388 351.238 39.5751 351.497 40.3072C351.772 41.0393 352.389 41.5198 353.35 41.7486L355.341 42.229C356.408 42.4883 357.209 42.9001 357.743 43.4645C358.292 44.0135 358.666 44.7456 358.864 45.6608C359.062 46.5759 359.177 47.6893 359.207 49.0011C359.238 50.084 359.253 50.9839 359.253 51.7007C359.253 52.4176 359.245 53.1116 359.23 53.7827C359.23 54.4538 359.215 55.2545 359.184 56.1849C359.138 58.0457 358.719 59.3879 357.926 60.2115C357.133 61.0199 355.874 61.4241 354.151 61.4241ZM377.975 61.4698C376.221 61.4698 374.955 61.0656 374.177 60.2573C373.415 59.4336 373.018 58.0914 372.987 56.2307C372.942 53.8513 372.911 51.5711 372.896 49.39C372.881 47.1936 372.873 45.0202 372.873 42.8696C372.873 40.719 372.881 38.5456 372.896 36.3492C372.911 34.1529 372.942 31.8727 372.987 29.5086C373.018 27.724 373.415 26.4123 374.177 25.5735C374.955 24.7346 376.206 24.3151 377.929 24.3151C379.714 24.3151 381.003 24.7193 381.796 25.5277C382.604 26.3208 383.031 27.6478 383.077 29.5086C383.092 30.1187 383.1 30.9042 383.1 31.865C383.115 32.8107 383.115 33.7563 383.1 34.702C383.1 35.6476 383.092 36.4179 383.077 37.0127H380.995C381.01 36.1738 381.018 35.3197 381.018 34.4503C381.033 33.5809 381.033 32.7116 381.018 31.8422C381.018 30.9575 381.01 30.0958 380.995 29.2569C380.98 28.0977 380.743 27.2893 380.286 26.8318C379.828 26.3742 379.043 26.1454 377.929 26.1454C376.923 26.1454 376.198 26.3742 375.756 26.8318C375.329 27.2893 375.1 28.0977 375.069 29.2569C375.024 31.6973 374.986 34.0309 374.955 36.2577C374.94 38.4846 374.932 40.6885 374.932 42.8696C374.932 45.0354 374.94 47.2394 374.955 49.4815C374.986 51.7236 375.024 54.0572 375.069 56.4823C375.1 57.6262 375.336 58.4422 375.779 58.9303C376.221 59.4031 376.953 59.6396 377.975 59.6396C379.134 59.6396 379.95 59.4031 380.423 58.9303C380.911 58.4422 381.163 57.6262 381.178 56.4823C381.193 55.5824 381.201 54.6597 381.201 53.714C381.201 52.7531 381.193 51.7999 381.178 50.8542C381.163 49.9086 381.147 48.9858 381.132 48.0859H383.214C383.26 49.5196 383.29 50.8771 383.306 52.1583C383.321 53.4395 383.306 54.7969 383.26 56.2307C383.214 58.0914 382.779 59.4336 381.956 60.2573C381.147 61.0656 379.821 61.4698 377.975 61.4698ZM397.258 61.1495V24.5439H399.34V61.1495H397.258ZM414.062 61.1495V24.5439H423.03V26.4657H416.143V41.8172H422.572V43.739H416.143V59.2277H423.03V61.1495H414.062ZM436.272 61.1495V24.5439H440.275L442.128 36.1205L445.4 59.2277H446.361L446.041 37.15L445.926 24.5439H447.985V61.1495H443.89L441.74 47.7427L438.903 26.4657H437.919L438.193 47.1021L438.308 61.1495H436.272ZM467.485 61.4698C465.731 61.4698 464.465 61.0656 463.688 60.2573C462.925 59.4336 462.528 58.0914 462.498 56.2307C462.452 53.8513 462.422 51.5711 462.406 49.39C462.391 47.1936 462.383 45.0202 462.383 42.8696C462.383 40.719 462.391 38.5456 462.406 36.3492C462.422 34.1529 462.452 31.8727 462.498 29.5086C462.528 27.724 462.925 26.4123 463.688 25.5735C464.465 24.7346 465.716 24.3151 467.44 24.3151C469.224 24.3151 470.513 24.7193 471.306 25.5277C472.114 26.3208 472.541 27.6478 472.587 29.5086C472.602 30.1187 472.61 30.9042 472.61 31.865C472.625 32.8107 472.625 33.7563 472.61 34.702C472.61 35.6476 472.602 36.4179 472.587 37.0127H470.505C470.521 36.1738 470.528 35.3197 470.528 34.4503C470.543 33.5809 470.543 32.7116 470.528 31.8422C470.528 30.9575 470.521 30.0958 470.505 29.2569C470.49 28.0977 470.254 27.2893 469.796 26.8318C469.338 26.3742 468.553 26.1454 467.44 26.1454C466.433 26.1454 465.708 26.3742 465.266 26.8318C464.839 27.2893 464.61 28.0977 464.58 29.2569C464.534 31.6973 464.496 34.0309 464.465 36.2577C464.45 38.4846 464.442 40.6885 464.442 42.8696C464.442 45.0354 464.45 47.2394 464.465 49.4815C464.496 51.7236 464.534 54.0572 464.58 56.4823C464.61 57.6262 464.847 58.4422 465.289 58.9303C465.731 59.4031 466.463 59.6396 467.485 59.6396C468.645 59.6396 469.461 59.4031 469.933 58.9303C470.421 58.4422 470.673 57.6262 470.688 56.4823C470.704 55.5824 470.711 54.6597 470.711 53.714C470.711 52.7531 470.704 51.7999 470.688 50.8542C470.673 49.9086 470.658 48.9858 470.643 48.0859H472.725C472.77 49.5196 472.801 50.8771 472.816 52.1583C472.831 53.4395 472.816 54.7969 472.77 56.2307C472.725 58.0914 472.29 59.4336 471.466 60.2573C470.658 61.0656 469.331 61.4698 467.485 61.4698ZM486.769 61.1495V24.5439H495.737V26.4657H488.851V41.8172H495.279V43.739H488.851V59.2277H495.737V61.1495H486.769Z" fill="#2D2D2D"/>
<g filter="url(#filter1_d_39_221)">
<path d="M63.2449 109.09V136.383C63.2449 138.159 62.2975 139.8 60.7579 140.69L38.8571 153.328L37.1114 154.334C35.5718 155.222 33.6751 155.222 32.1354 154.334L29.7523 152.958L8.48703 140.688C6.94931 139.8 6 138.157 6 136.381V109.088C6 107.31 6.94931 105.669 8.48703 104.779L32.1354 91.1352C33.6731 90.2472 35.5698 90.2472 37.1114 91.1352L60.7579 104.779C62.2975 105.667 63.2449 107.31 63.2449 109.088V109.09Z" stroke="#2D2D2D" stroke-width="3.12245" shape-rendering="crispEdges"/>
</g>
<g filter="url(#filter2_d_39_221)">
<path d="M63.2449 20.6211V47.9134C63.2449 49.6895 62.2975 51.3304 60.7579 52.2204L38.8571 64.8589L37.1114 65.8646C35.5718 66.7526 33.6751 66.7526 32.1354 65.8646L29.7523 64.4884L8.48703 52.2184C6.94931 51.3304 6 49.6876 6 47.9115V20.6191C6 18.8411 6.94931 17.2002 8.48703 16.3102L32.1354 2.66604C33.6731 1.77799 35.5698 1.77799 37.1114 2.66604L60.7579 16.3102C62.2975 17.1983 63.2449 18.8411 63.2449 20.6191V20.6211Z" stroke="#3A86FF" stroke-width="3.12245" shape-rendering="crispEdges"/>
</g>
<g filter="url(#filter3_d_39_221)">
<path d="M86.1428 64.3354V91.6277C86.1428 93.4038 85.1955 95.0447 83.6558 95.9347L61.755 108.573L60.0094 109.579C58.4697 110.467 56.573 110.467 55.0333 109.579L52.6503 108.203L31.385 95.9327C29.8472 95.0447 28.8979 93.4019 28.8979 91.6258V64.3334C28.8979 62.5554 29.8472 60.9145 31.385 60.0245L55.0333 46.3803C56.5711 45.4923 58.4677 45.4923 60.0094 46.3803L83.6558 60.0245C85.1955 60.9126 86.1428 62.5554 86.1428 64.3334V64.3354Z" fill="#FFCC00"/>
<path d="M86.1428 64.3354V91.6277C86.1428 93.4038 85.1955 95.0447 83.6558 95.9347L61.755 108.573L60.0094 109.579C58.4697 110.467 56.573 110.467 55.0333 109.579L52.6503 108.203L31.385 95.9327C29.8472 95.0447 28.8979 93.4019 28.8979 91.6258V64.3334C28.8979 62.5554 29.8472 60.9145 31.385 60.0245L55.0333 46.3803C56.5711 45.4923 58.4677 45.4923 60.0094 46.3803L83.6558 60.0245C85.1955 60.9126 86.1428 62.5554 86.1428 64.3334V64.3354Z" stroke="#FFCC00" stroke-width="3.12245"/>
</g>
<defs>
<filter id="filter0_d_39_221" x="95.1315" y="73.6445" width="412.494" height="78.7021" filterUnits="userSpaceOnUse" color-interpolation-filters="sRGB">
<feFlood flood-opacity="0" result="BackgroundImageFix"/>
<feColorMatrix in="SourceAlpha" type="matrix" values="0 0 0 0 0 0 0 0 0 0 0 0 0 0 0 0 0 0 127 0" result="hardAlpha"/>
<feOffset dy="5.71963"/>
<feGaussianBlur stdDeviation="2.85981"/>
<feComposite in2="hardAlpha" operator="out"/>
<feColorMatrix type="matrix" values="0 0 0 0 0.117647 0 0 0 0 0.117647 0 0 0 0 0.117647 0 0 0 0.35 0"/>
<feBlend mode="normal" in2="BackgroundImageFix" result="effect1_dropShadow_39_221"/>
<feBlend mode="normal" in="SourceGraphic" in2="effect1_dropShadow_39_221" result="shape"/>
</filter>
<filter id="filter1_d_39_221" x="0.275517" y="88.908" width="68.6939" height="75.9796" filterUnits="userSpaceOnUse" color-interpolation-filters="sRGB">
<feFlood flood-opacity="0" result="BackgroundImageFix"/>
<feColorMatrix in="SourceAlpha" type="matrix" values="0 0 0 0 0 0 0 0 0 0 0 0 0 0 0 0 0 0 127 0" result="hardAlpha"/>
<feOffset dy="4.16327"/>
<feGaussianBlur stdDeviation="2.08163"/>
<feComposite in2="hardAlpha" operator="out"/>
<feColorMatrix type="matrix" values="0 0 0 0 0.117647 0 0 0 0 0.117647 0 0 0 0 0.117647 0 0 0 0.35 0"/>
<feBlend mode="normal" in2="BackgroundImageFix" result="effect1_dropShadow_39_221"/>
<feBlend mode="normal" in="SourceGraphic" in2="effect1_dropShadow_39_221" result="shape"/>
</filter>
<filter id="filter2_d_39_221" x="0.275517" y="0.438782" width="68.6939" height="75.9796" filterUnits="userSpaceOnUse" color-interpolation-filters="sRGB">
<feFlood flood-opacity="0" result="BackgroundImageFix"/>
<feColorMatrix in="SourceAlpha" type="matrix" values="0 0 0 0 0 0 0 0 0 0 0 0 0 0 0 0 0 0 127 0" result="hardAlpha"/>
<feOffset dy="4.16327"/>
<feGaussianBlur stdDeviation="2.08163"/>
<feComposite in2="hardAlpha" operator="out"/>
<feColorMatrix type="matrix" values="0 0 0 0 0.117647 0 0 0 0 0.117647 0 0 0 0 0.117647 0 0 0 0.35 0"/>
<feBlend mode="normal" in2="BackgroundImageFix" result="effect1_dropShadow_39_221"/>
<feBlend mode="normal" in="SourceGraphic" in2="effect1_dropShadow_39_221" result="shape"/>
</filter>
<filter id="filter3_d_39_221" x="23.1734" y="44.1531" width="68.6939" height="75.9796" filterUnits="userSpaceOnUse" color-interpolation-filters="sRGB">
<feFlood flood-opacity="0" result="BackgroundImageFix"/>
<feColorMatrix in="SourceAlpha" type="matrix" values="0 0 0 0 0 0 0 0 0 0 0 0 0 0 0 0 0 0 127 0" result="hardAlpha"/>
<feOffset dy="4.16327"/>
<feGaussianBlur stdDeviation="2.08163"/>
<feComposite in2="hardAlpha" operator="out"/>
<feColorMatrix type="matrix" values="0 0 0 0 0.117647 0 0 0 0 0.117647 0 0 0 0 0.117647 0 0 0 0.35 0"/>
<feBlend mode="normal" in2="BackgroundImageFix" result="effect1_dropShadow_39_221"/>
<feBlend mode="normal" in="SourceGraphic" in2="effect1_dropShadow_39_221" result="shape"/>
</filter>
</defs>
</svg>
