<svg width="971" height="1167" viewBox="0 0 971 1167" fill="none" xmlns="http://www.w3.org/2000/svg">
<path d="M103.073 385.328V433.256C103.073 436.375 101.415 439.257 98.7218 440.82L60.4081 463.014L57.3543 464.78C54.6607 466.34 51.3427 466.34 48.6491 464.78L44.4801 462.363L7.27811 440.816C4.58799 439.257 2.92725 436.372 2.92725 433.253V385.324C2.92725 382.202 4.58799 379.321 7.27811 377.758L48.6491 353.797C51.3392 352.237 54.6573 352.237 57.3543 353.797L98.7218 377.758C101.415 379.317 103.073 382.202 103.073 385.324V385.328Z" fill="#E1E1E1" stroke="#E1E1E1" stroke-width="3.95311"/>
<path d="M403.509 560.582V608.511C403.509 611.63 401.852 614.511 399.158 616.074L360.845 638.269L357.791 640.035C355.097 641.594 351.779 641.594 349.086 640.035L344.917 637.618L307.715 616.071C305.024 614.511 303.364 611.626 303.364 608.507V560.579C303.364 557.457 305.024 554.575 307.715 553.012L349.086 529.051C351.776 527.492 355.094 527.492 357.791 529.051L399.158 553.012C401.852 554.572 403.509 557.457 403.509 560.579V560.582Z" stroke="#E1E1E1" stroke-width="3.95311"/>
<path d="M203.218 560.582V608.511C203.218 611.63 201.561 614.511 198.867 616.074L160.554 638.269L157.5 640.035C154.806 641.594 151.488 641.594 148.795 640.035L144.626 637.618L107.424 616.071C104.733 614.511 103.073 611.626 103.073 608.507V560.579C103.073 557.457 104.733 554.575 107.424 553.012L148.795 529.051C151.485 527.492 154.803 527.492 157.5 529.051L198.867 553.012C201.561 554.572 203.218 557.457 203.218 560.579V560.582Z" stroke="#E1E1E1" stroke-width="3.95311"/>
<path d="M253.291 648.21V696.138C253.291 699.257 251.634 702.138 248.94 703.701L210.626 725.896L207.573 727.662C204.879 729.221 201.561 729.221 198.867 727.662L194.698 725.245L157.496 703.698C154.806 702.138 153.146 699.253 153.146 696.134V648.206C153.146 645.084 154.806 642.202 157.496 640.639L198.867 616.679C201.557 615.119 204.876 615.119 207.573 616.679L248.94 640.639C251.634 642.199 253.291 645.084 253.291 648.206V648.21Z" fill="#E1E1E1" stroke="#E1E1E1" stroke-width="3.95311"/>
<path d="M153.145 472.955V520.883C153.145 524.002 151.488 526.884 148.795 528.447L110.481 550.641L107.427 552.407C104.733 553.967 101.415 553.967 98.7219 552.407L94.5529 549.991L57.3509 528.443C54.6607 526.884 53 523.999 53 520.88V472.952C53 469.829 54.6607 466.948 57.3509 465.385L98.7219 441.424C101.412 439.865 104.73 439.865 107.427 441.424L148.795 465.385C151.488 466.944 153.145 469.829 153.145 472.952V472.955Z" stroke="#E1E1E1" stroke-width="3.95311"/>
<path d="M303.364 385.328V433.256C303.364 436.375 301.706 439.257 299.013 440.82L260.699 463.014L257.645 464.78C254.952 466.34 251.634 466.34 248.94 464.78L244.771 462.363L207.569 440.816C204.879 439.257 203.218 436.372 203.218 433.253V385.324C203.218 382.202 204.879 379.321 207.569 377.758L248.94 353.797C251.63 352.237 254.948 352.237 257.645 353.797L299.013 377.758C301.706 379.317 303.364 382.202 303.364 385.324V385.328Z" stroke="#E1E1E1" stroke-width="3.95311"/>
<path d="M403.509 385.328V433.256C403.509 436.375 401.852 439.257 399.158 440.82L360.845 463.014L357.791 464.78C355.097 466.34 351.779 466.34 349.086 464.78L344.917 462.363L307.715 440.816C305.024 439.257 303.364 436.372 303.364 433.253V385.324C303.364 382.202 305.024 379.321 307.715 377.758L349.086 353.797C351.776 352.237 355.094 352.237 357.791 353.797L399.158 377.758C401.852 379.317 403.509 382.202 403.509 385.324V385.328Z" fill="#E1E1E1" stroke="#E1E1E1" stroke-width="3.95311"/>
<path d="M353.436 472.955V520.883C353.436 524.002 351.779 526.884 349.085 528.447L310.772 550.641L307.718 552.407C305.024 553.967 301.706 553.967 299.013 552.407L294.844 549.991L257.642 528.443C254.952 526.884 253.291 523.999 253.291 520.88V472.952C253.291 469.829 254.952 466.948 257.642 465.385L299.013 441.424C301.703 439.865 305.021 439.865 307.718 441.424L349.085 465.385C351.779 466.944 353.436 469.829 353.436 472.952V472.955Z" stroke="#E1E1E1" stroke-width="3.95311"/>
<path d="M203.218 385.328V433.256C203.218 436.375 201.561 439.257 198.867 440.82L160.554 463.014L157.5 464.78C154.806 466.34 151.488 466.34 148.795 464.78L144.626 462.363L107.424 440.816C104.733 439.257 103.073 436.372 103.073 433.253V385.324C103.073 382.202 104.733 379.321 107.424 377.758L148.795 353.797C151.485 352.237 154.803 352.237 157.5 353.797L198.867 377.758C201.561 379.317 203.218 382.202 203.218 385.324V385.328Z" stroke="#E1E1E1" stroke-width="3.95311"/>
<path d="M403.509 735.837V783.765C403.509 786.884 401.852 789.766 399.158 791.329L360.845 813.523L357.791 815.289C355.097 816.849 351.779 816.849 349.086 815.289L344.917 812.873L307.715 791.325C305.024 789.766 303.364 786.881 303.364 783.762V735.834C303.364 732.711 305.024 729.83 307.715 728.267L349.086 704.306C351.776 702.747 355.094 702.747 357.791 704.306L399.158 728.267C401.852 729.826 403.509 732.711 403.509 735.834V735.837Z" stroke="#E1E1E1" stroke-width="3.95311"/>
<path d="M453.582 823.464V871.392C453.582 874.511 451.925 877.393 449.231 878.956L410.917 901.15L407.863 902.917C405.17 904.476 401.852 904.476 399.158 902.917L394.989 900.5L357.787 878.952C355.097 877.393 353.436 874.508 353.436 871.389V823.461C353.436 820.338 355.097 817.457 357.787 815.894L399.158 791.933C401.848 790.374 405.166 790.374 407.863 791.933L449.231 815.894C451.925 817.453 453.582 820.338 453.582 823.461V823.464Z" stroke="#E1E1E1" stroke-width="3.95311"/>
<path d="M203.218 909.005V956.933C203.218 960.052 201.561 962.934 198.867 964.497L160.554 986.691L157.5 988.457C154.806 990.017 151.488 990.017 148.795 988.457L144.626 986.041L107.424 964.493C104.733 962.934 103.073 960.049 103.073 956.93V909.002C103.073 905.879 104.733 902.998 107.424 901.435L148.795 877.474C151.485 875.915 154.803 875.915 157.5 877.474L198.867 901.435C201.561 902.994 203.218 905.879 203.218 909.002V909.005Z" stroke="#E1E1E1" stroke-width="3.95311"/>
<path d="M653.873 823.464V871.392C653.873 874.511 652.215 877.393 649.522 878.956L611.208 901.15L608.154 902.917C605.461 904.476 602.143 904.476 599.449 902.917L595.28 900.5L558.078 878.952C555.388 877.393 553.727 874.508 553.727 871.389V823.461C553.727 820.338 555.388 817.457 558.078 815.894L599.449 791.933C602.139 790.374 605.457 790.374 608.154 791.933L649.522 815.894C652.215 817.453 653.873 820.338 653.873 823.461V823.464Z" fill="#E1E1E1" stroke="#E1E1E1" stroke-width="3.95311"/>
<path d="M553.727 996.632V1044.56C553.727 1047.68 552.07 1050.56 549.376 1052.12L511.063 1074.32L508.009 1076.08C505.315 1077.64 501.997 1077.64 499.304 1076.08L495.135 1073.67L457.933 1052.12C455.243 1050.56 453.582 1047.68 453.582 1044.56V996.629C453.582 993.507 455.243 990.625 457.933 989.062L499.304 965.102C501.994 963.542 505.312 963.542 508.009 965.102L549.376 989.062C552.07 990.622 553.727 993.507 553.727 996.629V996.632Z" stroke="#E1E1E1" stroke-width="3.95311"/>
<path d="M403.509 1084.26V1132.19C403.509 1135.31 401.852 1138.19 399.158 1139.75L360.845 1161.95L357.791 1163.71C355.097 1165.27 351.779 1165.27 349.086 1163.71L344.917 1161.3L307.715 1139.75C305.024 1138.19 303.364 1135.3 303.364 1132.18V1084.26C303.364 1081.13 305.024 1078.25 307.715 1076.69L349.086 1052.73C351.776 1051.17 355.094 1051.17 357.791 1052.73L399.158 1076.69C401.852 1078.25 403.509 1081.13 403.509 1084.26V1084.26Z" stroke="#E1E1E1" stroke-width="3.95311"/>
<path d="M703.946 735.837V783.765C703.946 786.884 702.288 789.766 699.595 791.329L661.281 813.523L658.227 815.289C655.534 816.849 652.215 816.849 649.522 815.289L645.353 812.873L608.151 791.325C605.461 789.766 603.8 786.881 603.8 783.762V735.834C603.8 732.711 605.461 729.83 608.151 728.267L649.522 704.306C652.212 702.747 655.53 702.747 658.227 704.306L699.595 728.267C702.288 729.826 703.946 732.711 703.946 735.834V735.837Z" stroke="#E1E1E1" stroke-width="3.95311"/>
<path d="M854.164 823.464V871.392C854.164 874.511 852.506 877.393 849.813 878.956L811.499 901.15L808.445 902.917C805.752 904.476 802.434 904.476 799.74 902.917L795.571 900.5L758.369 878.952C755.679 877.393 754.018 874.508 754.018 871.389V823.461C754.018 820.338 755.679 817.457 758.369 815.894L799.74 791.933C802.43 790.374 805.748 790.374 808.445 791.933L849.813 815.894C852.506 817.453 854.164 820.338 854.164 823.461V823.464Z" stroke="#E1E1E1" stroke-width="3.95311"/>
<path d="M203.218 735.837V783.765C203.218 786.884 201.561 789.766 198.867 791.329L160.554 813.523L157.5 815.289C154.806 816.849 151.488 816.849 148.795 815.289L144.626 812.873L107.424 791.325C104.733 789.766 103.073 786.881 103.073 783.762V735.834C103.073 732.711 104.733 729.83 107.424 728.267L148.795 704.306C151.485 702.747 154.803 702.747 157.5 704.306L198.867 728.267C201.561 729.826 203.218 732.711 203.218 735.834V735.837Z" stroke="#E1E1E1" stroke-width="3.95311"/>
<path d="M453.582 648.21V696.138C453.582 699.257 451.925 702.138 449.231 703.701L410.917 725.896L407.863 727.662C405.17 729.221 401.852 729.221 399.158 727.662L394.989 725.245L357.787 703.698C355.097 702.138 353.436 699.253 353.436 696.134V648.206C353.436 645.084 355.097 642.202 357.787 640.639L399.158 616.679C401.848 615.119 405.166 615.119 407.863 616.679L449.231 640.639C451.925 642.199 453.582 645.084 453.582 648.206V648.21Z" stroke="#E1E1E1" stroke-width="3.95311"/>
<path d="M553.727 648.21V696.138C553.727 699.257 552.07 702.138 549.376 703.701L511.063 725.896L508.009 727.662C505.315 729.221 501.997 729.221 499.304 727.662L495.135 725.245L457.933 703.698C455.243 702.138 453.582 699.253 453.582 696.134V648.206C453.582 645.084 455.243 642.202 457.933 640.639L499.304 616.679C501.994 615.119 505.312 615.119 508.009 616.679L549.376 640.639C552.07 642.199 553.727 645.084 553.727 648.206V648.21Z" stroke="#E1E1E1" stroke-width="3.95311"/>
<path d="M603.8 735.837V783.765C603.8 786.884 602.143 789.766 599.449 791.329L561.135 813.523L558.082 815.289C555.388 816.849 552.07 816.849 549.376 815.289L545.207 812.873L508.005 791.325C505.315 789.766 503.655 786.881 503.655 783.762V735.834C503.655 732.711 505.315 729.83 508.005 728.267L549.376 704.306C552.067 702.747 555.385 702.747 558.082 704.306L599.449 728.267C602.143 729.826 603.8 732.711 603.8 735.834V735.837Z" stroke="#E1E1E1" stroke-width="3.95311"/>
<path d="M403.509 210.073V258.001C403.509 261.12 401.852 264.002 399.158 265.565L360.845 287.76L357.791 289.526C355.097 291.085 351.779 291.085 349.086 289.526L344.917 287.109L307.715 265.561C305.024 264.002 303.364 261.117 303.364 257.998V210.07C303.364 206.947 305.024 204.066 307.715 202.503L349.086 178.542C351.776 176.983 355.094 176.983 357.791 178.542L399.158 202.503C401.852 204.062 403.509 206.947 403.509 210.07V210.073Z" stroke="#E1E1E1" stroke-width="3.95311"/>
<path d="M253.291 122.446V170.374C253.291 173.493 251.634 176.375 248.94 177.938L210.626 200.132L207.573 201.898C204.879 203.458 201.561 203.458 198.867 201.898L194.698 199.482L157.496 177.934C154.806 176.375 153.146 173.49 153.146 170.371V122.443C153.146 119.32 154.806 116.439 157.496 114.876L198.867 90.9151C201.557 89.3555 204.876 89.3555 207.573 90.9151L248.94 114.876C251.634 116.435 253.291 119.32 253.291 122.443V122.446Z" stroke="#E1E1E1" stroke-width="3.95311"/>
<path d="M203.218 34.8188V82.7469C203.218 85.8659 201.561 88.7474 198.867 90.3104L160.554 112.505L157.5 114.271C154.806 115.831 151.488 115.831 148.795 114.271L144.626 111.854L107.424 90.3069C104.733 88.7474 103.073 85.8625 103.073 82.7435V34.8153C103.073 31.6929 104.733 28.8114 107.424 27.2484L148.795 3.28779C151.485 1.72829 154.803 1.72829 157.5 3.28779L198.867 27.2484C201.561 28.8079 203.218 31.6929 203.218 34.8153V34.8188Z" stroke="#E1E1E1" stroke-width="3.95311"/>
<path d="M303.364 210.073V258.001C303.364 261.12 301.706 264.002 299.013 265.565L260.699 287.759L257.645 289.526C254.952 291.085 251.634 291.085 248.94 289.526L244.771 287.109L207.569 265.561C204.879 264.002 203.218 261.117 203.218 257.998V210.07C203.218 206.947 204.879 204.066 207.569 202.503L248.94 178.542C251.63 176.983 254.948 176.983 257.645 178.542L299.013 202.503C301.706 204.062 303.364 206.947 303.364 210.07V210.073Z" fill="#E1E1E1" stroke="#E1E1E1" stroke-width="3.95311"/>
<path d="M203.218 210.073V258.001C203.218 261.12 201.561 264.002 198.867 265.565L160.554 287.76L157.5 289.526C154.806 291.085 151.488 291.085 148.795 289.526L144.626 287.109L107.424 265.561C104.733 264.002 103.073 261.117 103.073 257.998V210.07C103.073 206.947 104.733 204.066 107.424 202.503L148.795 178.542C151.485 176.983 154.803 176.983 157.5 178.542L198.867 202.503C201.561 204.062 203.218 206.947 203.218 210.07V210.073Z" stroke="#E1E1E1" stroke-width="3.95311"/>
<path d="M103.073 210.073V258.001C103.073 261.12 101.415 264.002 98.7218 265.565L60.4081 287.759L57.3543 289.526C54.6607 291.085 51.3427 291.085 48.6491 289.526L44.4801 287.109L7.27811 265.561C4.58799 264.002 2.92725 261.117 2.92725 257.998V210.07C2.92725 206.947 4.58799 204.066 7.27811 202.503L48.6491 178.542C51.3392 176.983 54.6573 176.983 57.3543 178.542L98.7218 202.503C101.415 204.062 103.073 206.947 103.073 210.07V210.073Z" fill="#E1E1E1" stroke="#E1E1E1" stroke-width="3.95311"/>
<path d="M253.291 472.955V520.883C253.291 524.002 251.634 526.884 248.94 528.447L210.626 550.641L207.573 552.407C204.879 553.967 201.561 553.967 198.867 552.407L194.698 549.991L157.496 528.443C154.806 526.884 153.146 523.999 153.146 520.88V472.952C153.146 469.829 154.806 466.948 157.496 465.385L198.867 441.424C201.557 439.865 204.876 439.865 207.573 441.424L248.94 465.385C251.634 466.944 253.291 469.829 253.291 472.952V472.955Z" stroke="#E1E1E1" stroke-width="3.95311"/>
<path d="M353.436 297.701V345.629C353.436 348.748 351.779 351.629 349.085 353.192L310.772 375.387L307.718 377.153C305.024 378.712 301.706 378.712 299.013 377.153L294.844 374.736L257.642 353.189C254.952 351.629 253.291 348.744 253.291 345.625V297.697C253.291 294.575 254.952 291.693 257.642 290.13L299.013 266.17C301.703 264.61 305.021 264.61 307.718 266.17L349.085 290.13C351.779 291.69 353.436 294.575 353.436 297.697V297.701Z" stroke="#E1E1E1" stroke-width="3.95311"/>
<path d="M153.145 297.701V345.629C153.145 348.748 151.488 351.629 148.795 353.192L110.481 375.387L107.427 377.153C104.733 378.712 101.415 378.712 98.7219 377.153L94.5529 374.736L57.3509 353.189C54.6607 351.629 53 348.744 53 345.625V297.697C53 294.575 54.6607 291.693 57.3509 290.13L98.7219 266.17C101.412 264.61 104.73 264.61 107.427 266.17L148.795 290.13C151.488 291.69 153.145 294.575 153.145 297.697V297.701Z" stroke="#E1E1E1" stroke-width="3.95311"/>
<path d="M253.291 297.701V345.629C253.291 348.748 251.634 351.629 248.94 353.192L210.626 375.387L207.573 377.153C204.879 378.712 201.561 378.712 198.867 377.153L194.698 374.736L157.496 353.189C154.806 351.629 153.146 348.744 153.146 345.625V297.697C153.146 294.575 154.806 291.693 157.496 290.13L198.867 266.17C201.557 264.61 204.876 264.61 207.573 266.17L248.94 290.13C251.634 291.69 253.291 294.575 253.291 297.697V297.701Z" fill="#E1E1E1" stroke="#E1E1E1" stroke-width="3.95311"/>
</svg>
