<svg width="709" height="593" viewBox="0 0 709 593" fill="none" xmlns="http://www.w3.org/2000/svg">
<path d="M781.895 103.073L733.967 103.073C730.848 103.073 727.966 101.415 726.403 98.7219L704.209 60.4082L702.443 57.3543C700.883 54.6608 700.883 51.3427 702.443 48.6492L704.859 44.4802L726.407 7.27817C727.966 4.58805 730.851 2.9273 733.97 2.9273L781.898 2.92731C785.021 2.92731 787.902 4.58805 789.465 7.27817L813.426 48.6492C814.985 51.3393 814.985 54.6573 813.426 57.3543L789.465 98.7219C787.906 101.415 785.021 103.073 781.898 103.073L781.895 103.073Z" fill="#F5F5F5" stroke="#F5F5F5" stroke-width="3.95311"/>
<path d="M606.64 403.509L558.712 403.509C555.593 403.509 552.712 401.852 551.149 399.158L528.954 360.845L527.188 357.791C525.629 355.097 525.629 351.779 527.188 349.086L529.605 344.917L551.152 307.715C552.712 305.025 555.597 303.364 558.716 303.364L606.644 303.364C609.766 303.364 612.648 305.025 614.211 307.715L638.171 349.086C639.731 351.776 639.731 355.094 638.171 357.791L614.211 399.158C612.651 401.852 609.766 403.509 606.644 403.509L606.64 403.509Z" stroke="#F5F5F5" stroke-width="3.95311"/>
<path d="M606.64 203.218L558.712 203.218C555.593 203.218 552.712 201.561 551.149 198.867L528.954 160.554L527.188 157.5C525.629 154.806 525.629 151.488 527.188 148.795L529.605 144.626L551.152 107.424C552.712 104.733 555.597 103.073 558.716 103.073L606.644 103.073C609.766 103.073 612.648 104.733 614.211 107.424L638.171 148.795C639.731 151.485 639.731 154.803 638.171 157.5L614.211 198.867C612.651 201.561 609.766 203.218 606.644 203.218L606.64 203.218Z" stroke="#F5F5F5" stroke-width="3.95311"/>
<path d="M519.013 253.291L471.085 253.291C467.966 253.291 465.084 251.634 463.521 248.94L441.327 210.626L439.561 207.573C438.001 204.879 438.001 201.561 439.561 198.867L441.978 194.698L463.525 157.496C465.084 154.806 467.969 153.146 471.088 153.146L519.017 153.146C522.139 153.146 525.02 154.806 526.583 157.496L550.544 198.867C552.104 201.557 552.104 204.876 550.544 207.573L526.583 248.94C525.024 251.634 522.139 253.291 519.017 253.291L519.013 253.291Z" fill="#F5F5F5" stroke="#F5F5F5" stroke-width="3.95311"/>
<path d="M694.268 153.146L646.34 153.146C643.22 153.146 640.339 151.488 638.776 148.795L616.581 110.481L614.815 107.427C613.256 104.734 613.256 101.415 614.815 98.7219L617.232 94.5529L638.779 57.3509C640.339 54.6608 643.224 53.0001 646.343 53.0001L694.271 53.0001C697.394 53.0001 700.275 54.6608 701.838 57.3509L725.799 98.7219C727.358 101.412 727.358 104.73 725.799 107.427L701.838 148.795C700.278 151.488 697.394 153.146 694.271 153.146L694.268 153.146Z" stroke="#F5F5F5" stroke-width="3.95311"/>
<path d="M781.895 303.364L733.967 303.364C730.848 303.364 727.966 301.706 726.403 299.013L704.209 260.699L702.443 257.645C700.883 254.952 700.883 251.634 702.443 248.94L704.859 244.771L726.407 207.569C727.966 204.879 730.851 203.218 733.97 203.218L781.898 203.218C785.021 203.218 787.902 204.879 789.465 207.569L813.426 248.94C814.985 251.63 814.985 254.948 813.426 257.645L789.465 299.013C787.906 301.706 785.021 303.364 781.898 303.364L781.895 303.364Z" stroke="#F5F5F5" stroke-width="3.95311"/>
<path d="M781.895 403.509L733.967 403.509C730.848 403.509 727.966 401.852 726.403 399.158L704.209 360.845L702.443 357.791C700.883 355.097 700.883 351.779 702.443 349.086L704.859 344.917L726.407 307.715C727.966 305.025 730.851 303.364 733.97 303.364L781.898 303.364C785.021 303.364 787.902 305.025 789.465 307.715L813.426 349.086C814.985 351.776 814.985 355.094 813.426 357.791L789.465 399.158C787.906 401.852 785.021 403.509 781.898 403.509L781.895 403.509Z" fill="#F5F5F5" stroke="#F5F5F5" stroke-width="3.95311"/>
<path d="M694.268 353.436L646.34 353.436C643.22 353.436 640.339 351.779 638.776 349.086L616.581 310.772L614.815 307.718C613.256 305.024 613.256 301.706 614.815 299.013L617.232 294.844L638.779 257.642C640.339 254.952 643.224 253.291 646.343 253.291L694.271 253.291C697.394 253.291 700.275 254.952 701.838 257.642L725.799 299.013C727.358 301.703 727.358 305.021 725.799 307.718L701.838 349.086C700.278 351.779 697.394 353.436 694.271 353.436L694.268 353.436Z" stroke="#F5F5F5" stroke-width="3.95311"/>
<path d="M781.895 203.218L733.967 203.218C730.848 203.218 727.966 201.561 726.403 198.867L704.209 160.554L702.443 157.5C700.883 154.806 700.883 151.488 702.443 148.795L704.859 144.626L726.407 107.424C727.966 104.733 730.851 103.073 733.97 103.073L781.898 103.073C785.021 103.073 787.902 104.733 789.465 107.424L813.426 148.795C814.985 151.485 814.985 154.803 813.426 157.5L789.465 198.867C787.906 201.561 785.021 203.218 781.898 203.218L781.895 203.218Z" stroke="#F5F5F5" stroke-width="3.95311"/>
<path d="M431.386 403.509L383.458 403.509C380.339 403.509 377.457 401.852 375.894 399.158L353.7 360.845L351.934 357.791C350.374 355.097 350.374 351.779 351.934 349.086L354.35 344.917L375.898 307.715C377.457 305.025 380.342 303.364 383.461 303.364L431.389 303.364C434.512 303.364 437.393 305.025 438.956 307.715L462.917 349.086C464.476 351.776 464.476 355.094 462.917 357.791L438.956 399.158C437.397 401.852 434.512 403.509 431.389 403.509L431.386 403.509Z" stroke="#F5F5F5" stroke-width="3.95311"/>
<path d="M343.759 453.582L295.83 453.582C292.711 453.582 289.83 451.925 288.267 449.231L266.072 410.917L264.306 407.863C262.747 405.17 262.747 401.852 264.306 399.158L266.723 394.989L288.27 357.787C289.83 355.097 292.715 353.436 295.834 353.436L343.762 353.436C346.884 353.436 349.766 355.097 351.329 357.787L375.289 399.158C376.849 401.848 376.849 405.166 375.289 407.863L351.329 449.231C349.769 451.925 346.884 453.582 343.762 453.582L343.759 453.582Z" stroke="#F5F5F5" stroke-width="3.95311"/>
<path d="M258.218 203.218L210.289 203.218C207.17 203.218 204.289 201.561 202.726 198.867L180.531 160.554L178.765 157.5C177.206 154.806 177.206 151.488 178.765 148.795L181.182 144.626L202.729 107.424C204.289 104.733 207.174 103.073 210.293 103.073L258.221 103.073C261.344 103.073 264.225 104.733 265.788 107.424L289.749 148.795C291.308 151.485 291.308 154.803 289.749 157.5L265.788 198.867C264.228 201.561 261.344 203.218 258.221 203.218L258.218 203.218Z" stroke="#F5F5F5" stroke-width="3.95311"/>
<path d="M343.759 653.873L295.83 653.873C292.711 653.873 289.83 652.216 288.267 649.522L266.072 611.208L264.306 608.154C262.747 605.461 262.747 602.143 264.306 599.449L266.723 595.28L288.27 558.078C289.83 555.388 292.715 553.727 295.834 553.727L343.762 553.727C346.884 553.727 349.766 555.388 351.329 558.078L375.289 599.449C376.849 602.139 376.849 605.457 375.289 608.154L351.329 649.522C349.769 652.216 346.884 653.873 343.762 653.873L343.759 653.873Z" fill="#F5F5F5" stroke="#F5F5F5" stroke-width="3.95311"/>
<path d="M170.59 553.727L122.662 553.727C119.543 553.727 116.662 552.07 115.099 549.377L92.9042 511.063L91.1381 508.009C89.5786 505.315 89.5786 501.997 91.1381 499.304L93.5549 495.135L115.102 457.933C116.662 455.243 119.547 453.582 122.666 453.582L170.594 453.582C173.716 453.582 176.598 455.243 178.161 457.933L202.121 499.304C203.681 501.994 203.681 505.312 202.121 508.009L178.161 549.377C176.601 552.07 173.716 553.727 170.594 553.727L170.59 553.727Z" stroke="#F5F5F5" stroke-width="3.95311"/>
<path d="M82.9631 403.509L35.0349 403.509C31.9159 403.509 29.0344 401.852 27.4715 399.158L5.2769 360.845L3.51083 357.791C1.95132 355.097 1.95132 351.779 3.51083 349.086L5.92756 344.917L27.4749 307.715C29.0344 305.025 31.9193 303.364 35.0383 303.364L82.9666 303.364C86.089 303.364 88.9705 305.025 90.5334 307.715L114.494 349.086C116.054 351.776 116.054 355.094 114.494 357.791L90.5334 399.158C88.9739 401.852 86.089 403.509 82.9665 403.509L82.9631 403.509Z" stroke="#F5F5F5" stroke-width="3.95311"/>
<path d="M431.386 203.218L383.458 203.218C380.339 203.218 377.457 201.561 375.894 198.867L353.7 160.554L351.934 157.5C350.374 154.806 350.374 151.488 351.934 148.795L354.35 144.626L375.898 107.424C377.457 104.733 380.342 103.073 383.461 103.073L431.389 103.073C434.512 103.073 437.393 104.733 438.956 107.424L462.917 148.795C464.476 151.485 464.476 154.803 462.917 157.5L438.956 198.867C437.397 201.561 434.512 203.218 431.389 203.218L431.386 203.218Z" stroke="#F5F5F5" stroke-width="3.95311"/>
<path d="M519.013 453.582L471.085 453.582C467.966 453.582 465.084 451.925 463.522 449.231L441.327 410.917L439.561 407.863C438.001 405.17 438.001 401.852 439.561 399.158L441.978 394.989L463.525 357.787C465.084 355.097 467.969 353.436 471.088 353.436L519.017 353.436C522.139 353.436 525.021 355.097 526.583 357.787L550.544 399.158C552.104 401.848 552.104 405.166 550.544 407.863L526.583 449.231C525.024 451.925 522.139 453.582 519.017 453.582L519.013 453.582Z" stroke="#F5F5F5" stroke-width="3.95311"/>
<path d="M519.013 553.727L471.085 553.727C467.966 553.727 465.084 552.07 463.522 549.377L441.327 511.063L439.561 508.009C438.001 505.315 438.001 501.997 439.561 499.304L441.978 495.135L463.525 457.933C465.084 455.243 467.969 453.582 471.088 453.582L519.017 453.582C522.139 453.582 525.021 455.243 526.583 457.933L550.544 499.304C552.104 501.994 552.104 505.312 550.544 508.009L526.583 549.377C525.024 552.07 522.139 553.727 519.017 553.727L519.013 553.727Z" stroke="#F5F5F5" stroke-width="3.95311"/>
<path d="M431.386 603.8L383.458 603.8C380.339 603.8 377.457 602.143 375.894 599.449L353.7 561.136L351.934 558.082C350.374 555.388 350.374 552.07 351.934 549.377L354.35 545.208L375.898 508.006C377.457 505.315 380.342 503.655 383.461 503.655L431.389 503.655C434.512 503.655 437.393 505.315 438.956 508.006L462.917 549.377C464.476 552.067 464.476 555.385 462.917 558.082L438.956 599.449C437.397 602.143 434.512 603.8 431.389 603.8L431.386 603.8Z" stroke="#F5F5F5" stroke-width="3.95311"/>
<path d="M694.268 253.291L646.34 253.291C643.22 253.291 640.339 251.634 638.776 248.94L616.581 210.626L614.815 207.573C613.256 204.879 613.256 201.561 614.815 198.867L617.232 194.698L638.779 157.496C640.339 154.806 643.224 153.146 646.343 153.146L694.271 153.146C697.394 153.146 700.275 154.806 701.838 157.496L725.799 198.867C727.358 201.558 727.358 204.876 725.799 207.573L701.838 248.94C700.278 251.634 697.394 253.291 694.271 253.291L694.268 253.291Z" stroke="#F5F5F5" stroke-width="3.95311"/>
</svg>
