<svg width="465" height="560" viewBox="0 0 465 560" fill="none" xmlns="http://www.w3.org/2000/svg">
<path d="M416 375.327L416 352.354C416 350.859 416.794 349.478 418.085 348.729L436.449 338.091L437.913 337.245C439.204 336.497 440.794 336.497 442.085 337.245L444.084 338.403L461.915 348.731C463.204 349.478 464 350.861 464 352.356L464 375.328C464 376.825 463.204 378.206 461.915 378.955L442.085 390.439C440.796 391.187 439.206 391.187 437.913 390.439L418.085 378.955C416.794 378.208 416 376.825 416 375.328L416 375.327Z" fill="#1E1E1E" stroke="#1E1E1E" stroke-width="1.89474"/>
<path d="M272 291.327L272 268.354C272 266.859 272.794 265.478 274.085 264.729L292.449 254.091L293.913 253.245C295.204 252.497 296.794 252.497 298.085 253.245L300.084 254.403L317.915 264.731C319.204 265.478 320 266.861 320 268.356L320 291.328C320 292.825 319.204 294.206 317.915 294.955L298.085 306.439C296.796 307.187 295.206 307.187 293.913 306.439L274.085 294.955C272.794 294.208 272 292.825 272 291.328L272 291.327Z" stroke="#1E1E1E" stroke-width="1.89474"/>
<path d="M368 291.327L368 268.354C368 266.859 368.794 265.478 370.085 264.729L388.449 254.091L389.913 253.245C391.204 252.497 392.794 252.497 394.085 253.245L396.084 254.403L413.915 264.731C415.204 265.478 416 266.861 416 268.356L416 291.328C416 292.825 415.204 294.206 413.915 294.955L394.085 306.439C392.796 307.187 391.206 307.187 389.913 306.439L370.085 294.955C368.794 294.208 368 292.825 368 291.328L368 291.327Z" stroke="#1E1E1E" stroke-width="1.89474"/>
<path d="M344 249.327L344 226.354C344 224.859 344.794 223.478 346.085 222.729L364.449 212.091L365.913 211.245C367.204 210.497 368.794 210.497 370.085 211.245L372.084 212.403L389.915 222.731C391.204 223.478 392 224.861 392 226.356L392 249.328C392 250.825 391.204 252.206 389.915 252.955L370.085 264.439C368.796 265.187 367.206 265.187 365.913 264.439L346.085 252.955C344.794 252.208 344 250.825 344 249.328L344 249.327Z" fill="#1E1E1E" stroke="#1E1E1E" stroke-width="1.89474"/>
<path d="M392 333.327L392 310.354C392 308.859 392.794 307.478 394.085 306.729L412.449 296.091L413.913 295.245C415.204 294.497 416.794 294.497 418.085 295.245L420.084 296.403L437.915 306.731C439.204 307.478 440 308.861 440 310.356L440 333.328C440 334.825 439.204 336.206 437.915 336.955L418.085 348.439C416.796 349.187 415.206 349.187 413.913 348.439L394.085 336.955C392.794 336.208 392 334.825 392 333.328L392 333.327Z" stroke="#1E1E1E" stroke-width="1.89474"/>
<path d="M320 375.327L320 352.354C320 350.859 320.794 349.478 322.085 348.729L340.449 338.091L341.913 337.245C343.204 336.497 344.794 336.497 346.085 337.245L348.084 338.403L365.915 348.731C367.204 349.478 368 350.861 368 352.356L368 375.328C368 376.825 367.204 378.206 365.915 378.955L346.085 390.439C344.796 391.187 343.206 391.187 341.913 390.439L322.085 378.955C320.794 378.208 320 376.825 320 375.328L320 375.327Z" stroke="#1E1E1E" stroke-width="1.89474"/>
<path d="M272 375.327L272 352.354C272 350.859 272.794 349.478 274.085 348.729L292.449 338.091L293.913 337.245C295.204 336.497 296.794 336.497 298.085 337.245L300.084 338.403L317.915 348.731C319.204 349.478 320 350.861 320 352.356L320 375.328C320 376.825 319.204 378.206 317.915 378.955L298.085 390.439C296.796 391.187 295.206 391.187 293.913 390.439L274.085 378.955C272.794 378.208 272 376.825 272 375.328L272 375.327Z" fill="#1E1E1E" stroke="#1E1E1E" stroke-width="1.89474"/>
<path d="M296 333.327L296 310.354C296 308.859 296.794 307.478 298.085 306.729L316.449 296.091L317.913 295.245C319.204 294.497 320.794 294.497 322.085 295.245L324.084 296.403L341.915 306.731C343.204 307.478 344 308.861 344 310.356L344 333.328C344 334.825 343.204 336.206 341.915 336.955L322.085 348.439C320.796 349.187 319.206 349.187 317.913 348.439L298.085 336.955C296.794 336.208 296 334.825 296 333.328L296 333.327Z" stroke="#1E1E1E" stroke-width="1.89474"/>
<path d="M368 375.327L368 352.354C368 350.859 368.794 349.478 370.085 348.729L388.449 338.091L389.913 337.245C391.204 336.497 392.794 336.497 394.085 337.245L396.084 338.403L413.915 348.731C415.204 349.478 416 350.861 416 352.356L416 375.328C416 376.825 415.204 378.206 413.915 378.955L394.085 390.439C392.796 391.187 391.206 391.187 389.913 390.439L370.085 378.955C368.794 378.208 368 376.825 368 375.328L368 375.327Z" stroke="#1E1E1E" stroke-width="1.89474"/>
<path d="M272 207.327L272 184.354C272 182.859 272.794 181.478 274.085 180.729L292.449 170.091L293.913 169.245C295.204 168.497 296.794 168.497 298.085 169.245L300.084 170.403L317.915 180.731C319.204 181.478 320 182.861 320 184.356L320 207.328C320 208.825 319.204 210.206 317.915 210.955L298.085 222.439C296.796 223.187 295.206 223.187 293.913 222.439L274.085 210.955C272.794 210.208 272 208.825 272 207.328L272 207.327Z" stroke="#1E1E1E" stroke-width="1.89474"/>
<path d="M248 165.327L248 142.354C248 140.859 248.794 139.478 250.085 138.729L268.449 128.091L269.913 127.245C271.204 126.497 272.794 126.497 274.085 127.245L276.084 128.403L293.915 138.731C295.204 139.478 296 140.861 296 142.356L296 165.328C296 166.825 295.204 168.206 293.915 168.955L274.085 180.439C272.796 181.187 271.206 181.187 269.913 180.439L250.085 168.955C248.794 168.208 248 166.825 248 165.328L248 165.327Z" stroke="#1E1E1E" stroke-width="1.89474"/>
<path d="M368 124.327L368 101.354C368 99.8595 368.794 98.4784 370.085 97.7292L388.449 87.0913L389.913 86.2448C391.204 85.4973 392.794 85.4973 394.085 86.2448L396.084 87.4032L413.915 97.7309C415.204 98.4783 416 99.8611 416 101.356L416 124.328C416 125.825 415.204 127.206 413.915 127.955L394.085 139.439C392.796 140.187 391.206 140.187 389.913 139.439L370.085 127.955C368.794 127.208 368 125.825 368 124.328L368 124.327Z" stroke="#1E1E1E" stroke-width="1.89474"/>
<path d="M152 165.327L152 142.354C152 140.859 152.794 139.478 154.085 138.729L172.449 128.091L173.913 127.245C175.204 126.497 176.794 126.497 178.085 127.245L180.084 128.403L197.915 138.731C199.204 139.478 200 140.861 200 142.356L200 165.328C200 166.825 199.204 168.206 197.915 168.955L178.085 180.439C176.796 181.187 175.206 181.187 173.913 180.439L154.085 168.955C152.794 168.208 152 166.825 152 165.328L152 165.327Z" fill="#1E1E1E" stroke="#1E1E1E" stroke-width="1.89474"/>
<path d="M200 82.3265L200 59.3544C200 57.8595 200.794 56.4784 202.085 55.7292L220.449 45.0913L221.913 44.2448C223.204 43.4973 224.794 43.4973 226.085 44.2448L228.084 45.4032L245.915 55.7309C247.204 56.4783 248 57.8611 248 59.356L248 82.3282C248 83.8248 247.204 85.2059 245.915 85.955L226.085 97.4394C224.796 98.1869 223.206 98.1869 221.913 97.4394L202.085 85.955C200.794 85.2075 200 83.8248 200 82.3282L200 82.3265Z" stroke="#1E1E1E" stroke-width="1.89474"/>
<path d="M272 40.3265L272 17.3544C272 15.8595 272.794 14.4784 274.085 13.7292L292.449 3.0913L293.913 2.24482C295.204 1.49734 296.794 1.49734 298.085 2.24482L300.084 3.40316L317.915 13.7309C319.204 14.4783 320 15.8611 320 17.356L320 40.3282C320 41.8248 319.204 43.2059 317.915 43.955L298.085 55.4394C296.796 56.1869 295.206 56.1869 293.913 55.4394L274.085 43.955C272.794 43.2075 272 41.8248 272 40.3282L272 40.3265Z" stroke="#1E1E1E" stroke-width="1.89474"/>
<path d="M128 207.327L128 184.354C128 182.859 128.794 181.478 130.085 180.729L148.449 170.091L149.913 169.245C151.204 168.497 152.794 168.497 154.085 169.245L156.084 170.403L173.915 180.731C175.204 181.478 176 182.861 176 184.356L176 207.328C176 208.825 175.204 210.206 173.915 210.955L154.085 222.439C152.796 223.187 151.206 223.187 149.913 222.439L130.085 210.955C128.794 210.208 128 208.825 128 207.328L128 207.327Z" stroke="#1E1E1E" stroke-width="1.89474"/>
<path d="M56 165.327L56 142.354C56 140.859 56.7943 139.478 58.0854 138.729L76.4492 128.091L77.913 127.245C79.204 126.497 80.7943 126.497 82.0854 127.245L84.0836 128.403L101.915 138.731C103.204 139.478 104 140.861 104 142.356L104 165.328C104 166.825 103.204 168.206 101.915 168.955L82.0854 180.439C80.796 181.187 79.2056 181.187 77.913 180.439L58.0854 168.955C56.7943 168.208 56 166.825 56 165.328L56 165.327Z" stroke="#1E1E1E" stroke-width="1.89474"/>
<path d="M368 207.327L368 184.354C368 182.859 368.794 181.478 370.085 180.729L388.449 170.091L389.913 169.245C391.204 168.497 392.794 168.497 394.085 169.245L396.084 170.403L413.915 180.731C415.204 181.478 416 182.861 416 184.356L416 207.328C416 208.825 415.204 210.206 413.915 210.955L394.085 222.439C392.796 223.187 391.206 223.187 389.913 222.439L370.085 210.955C368.794 210.208 368 208.825 368 207.328L368 207.327Z" stroke="#1E1E1E" stroke-width="1.89474"/>
<path d="M248 249.327L248 226.354C248 224.859 248.794 223.478 250.085 222.729L268.449 212.091L269.913 211.245C271.204 210.497 272.794 210.497 274.085 211.245L276.084 212.403L293.915 222.731C295.204 223.478 296 224.861 296 226.356L296 249.328C296 250.825 295.204 252.206 293.915 252.955L274.085 264.439C272.796 265.187 271.206 265.187 269.913 264.439L250.085 252.955C248.794 252.208 248 250.825 248 249.328L248 249.327Z" stroke="#1E1E1E" stroke-width="1.89474"/>
<path d="M200 249.327L200 226.354C200 224.859 200.794 223.478 202.085 222.729L220.449 212.091L221.913 211.245C223.204 210.497 224.794 210.497 226.085 211.245L228.084 212.403L245.915 222.731C247.204 223.478 248 224.861 248 226.356L248 249.328C248 250.825 247.204 252.206 245.915 252.955L226.085 264.439C224.796 265.187 223.206 265.187 221.913 264.439L202.085 252.955C200.794 252.208 200 250.825 200 249.328L200 249.327Z" stroke="#1E1E1E" stroke-width="1.89474"/>
<path d="M176 207.327L176 184.354C176 182.859 176.794 181.478 178.085 180.729L196.449 170.091L197.913 169.245C199.204 168.497 200.794 168.497 202.085 169.245L204.084 170.403L221.915 180.731C223.204 181.478 224 182.861 224 184.356L224 207.328C224 208.825 223.204 210.206 221.915 210.955L202.085 222.439C200.796 223.187 199.206 223.187 197.913 222.439L178.085 210.955C176.794 210.208 176 208.825 176 207.328L176 207.327Z" stroke="#1E1E1E" stroke-width="1.89474"/>
<path d="M272 459.327L272 436.354C272 434.859 272.794 433.478 274.085 432.729L292.449 422.091L293.913 421.245C295.204 420.497 296.794 420.497 298.085 421.245L300.084 422.403L317.915 432.731C319.204 433.478 320 434.861 320 436.356L320 459.328C320 460.825 319.204 462.206 317.915 462.955L298.085 474.439C296.796 475.187 295.206 475.187 293.913 474.439L274.085 462.955C272.794 462.208 272 460.825 272 459.328L272 459.327Z" stroke="#1E1E1E" stroke-width="1.89474"/>
<path d="M344 501.327L344 478.354C344 476.859 344.794 475.478 346.085 474.729L364.449 464.091L365.913 463.245C367.204 462.497 368.794 462.497 370.085 463.245L372.084 464.403L389.915 474.731C391.204 475.478 392 476.861 392 478.356L392 501.328C392 502.825 391.204 504.206 389.915 504.955L370.085 516.439C368.796 517.187 367.206 517.187 365.913 516.439L346.085 504.955C344.794 504.208 344 502.825 344 501.328L344 501.327Z" stroke="#1E1E1E" stroke-width="1.89474"/>
<path d="M368 543.327L368 520.354C368 518.859 368.794 517.478 370.085 516.729L388.449 506.091L389.913 505.245C391.204 504.497 392.794 504.497 394.085 505.245L396.084 506.403L413.915 516.731C415.204 517.478 416 518.861 416 520.356L416 543.328C416 544.825 415.204 546.206 413.915 546.955L394.085 558.439C392.796 559.187 391.206 559.187 389.913 558.439L370.085 546.955C368.794 546.208 368 544.825 368 543.328L368 543.327Z" stroke="#1E1E1E" stroke-width="1.89474"/>
<path d="M320 459.327L320 436.354C320 434.859 320.794 433.478 322.085 432.729L340.449 422.091L341.913 421.245C343.204 420.497 344.794 420.497 346.085 421.245L348.084 422.403L365.915 432.731C367.204 433.478 368 434.861 368 436.356L368 459.328C368 460.825 367.204 462.206 365.915 462.955L346.085 474.439C344.796 475.187 343.206 475.187 341.913 474.439L322.085 462.955C320.794 462.208 320 460.825 320 459.328L320 459.327Z" fill="#1E1E1E" stroke="#1E1E1E" stroke-width="1.89474"/>
<path d="M368 459.327L368 436.354C368 434.859 368.794 433.478 370.085 432.729L388.449 422.091L389.913 421.245C391.204 420.497 392.794 420.497 394.085 421.245L396.084 422.403L413.915 432.731C415.204 433.478 416 434.861 416 436.356L416 459.328C416 460.825 415.204 462.206 413.915 462.955L394.085 474.439C392.796 475.187 391.206 475.187 389.913 474.439L370.085 462.955C368.794 462.208 368 460.825 368 459.328L368 459.327Z" stroke="#1E1E1E" stroke-width="1.89474"/>
<path d="M416 459.327L416 436.354C416 434.859 416.794 433.478 418.085 432.729L436.449 422.091L437.913 421.245C439.204 420.497 440.794 420.497 442.085 421.245L444.084 422.403L461.915 432.731C463.204 433.478 464 434.861 464 436.356L464 459.328C464 460.825 463.204 462.206 461.915 462.955L442.085 474.439C440.796 475.187 439.206 475.187 437.913 474.439L418.085 462.955C416.794 462.208 416 460.825 416 459.328L416 459.327Z" fill="#1E1E1E" stroke="#1E1E1E" stroke-width="1.89474"/>
<path d="M344 333.327L344 310.354C344 308.859 344.794 307.478 346.085 306.729L364.449 296.091L365.913 295.245C367.204 294.497 368.794 294.497 370.085 295.245L372.084 296.403L389.915 306.731C391.204 307.478 392 308.861 392 310.356L392 333.328C392 334.825 391.204 336.206 389.915 336.955L370.085 348.439C368.796 349.187 367.206 349.187 365.913 348.439L346.085 336.955C344.794 336.208 344 334.825 344 333.328L344 333.327Z" stroke="#1E1E1E" stroke-width="1.89474"/>
<path d="M296 417.327L296 394.354C296 392.859 296.794 391.478 298.085 390.729L316.449 380.091L317.913 379.245C319.204 378.497 320.794 378.497 322.085 379.245L324.084 380.403L341.915 390.731C343.204 391.478 344 392.861 344 394.356L344 417.328C344 418.825 343.204 420.206 341.915 420.955L322.085 432.439C320.796 433.187 319.206 433.187 317.913 432.439L298.085 420.955C296.794 420.208 296 418.825 296 417.328L296 417.327Z" stroke="#1E1E1E" stroke-width="1.89474"/>
<path d="M392 417.327L392 394.354C392 392.859 392.794 391.478 394.085 390.729L412.449 380.091L413.913 379.245C415.204 378.497 416.794 378.497 418.085 379.245L420.084 380.403L437.915 390.731C439.204 391.478 440 392.861 440 394.356L440 417.328C440 418.825 439.204 420.206 437.915 420.955L418.085 432.439C416.796 433.187 415.206 433.187 413.913 432.439L394.085 420.955C392.794 420.208 392 418.825 392 417.328L392 417.327Z" stroke="#1E1E1E" stroke-width="1.89474"/>
<path d="M344 417.327L344 394.354C344 392.859 344.794 391.478 346.085 390.729L364.449 380.091L365.913 379.245C367.204 378.497 368.794 378.497 370.085 379.245L372.084 380.403L389.915 390.731C391.204 391.478 392 392.861 392 394.356L392 417.328C392 418.825 391.204 420.206 389.915 420.955L370.085 432.439C368.796 433.187 367.206 433.187 365.913 432.439L346.085 420.955C344.794 420.208 344 418.825 344 417.328L344 417.327Z" fill="#1E1E1E" stroke="#1E1E1E" stroke-width="1.89474"/>
</svg>
