<svg width="273" height="89" viewBox="0 0 273 89" fill="none" xmlns="http://www.w3.org/2000/svg">
<g filter="url(#filter0_d_36_193)">
<path d="M96.9664 39.6954V40.6764C95.92 40.7091 95.1353 40.8399 94.6121 41.0688C94.089 41.2649 93.7293 41.6573 93.5331 42.2459C93.3696 42.8017 93.2879 43.6846 93.2879 44.8944V69.2216C93.2879 70.3987 93.3696 71.2815 93.5331 71.8701C93.7293 72.4587 94.089 72.851 94.6121 73.0472C95.1353 73.2434 95.92 73.3742 96.9664 73.4396V74.4205C96.0508 74.3551 94.8901 74.3224 93.4841 74.3224C92.1108 74.2897 90.7047 74.2734 89.266 74.2734C87.6965 74.2734 86.2251 74.2897 84.8518 74.3224C83.4785 74.3224 82.3668 74.3551 81.5167 74.4205V73.4396C82.6284 73.3742 83.4622 73.2434 84.018 73.0472C84.6066 72.851 84.999 72.4587 85.1952 71.8701C85.3913 71.2815 85.4894 70.3987 85.4894 69.2216V42.6873H85.8328L73.6692 74.4696H72.8844L59.6418 42.8835V66.3769C59.6418 68.1752 59.7399 69.5649 59.9361 70.5458C60.1323 71.4941 60.5574 72.1807 61.2113 72.6058C61.898 72.9982 62.9606 73.2761 64.3993 73.4396V74.4205C63.7781 74.3551 62.9606 74.3224 61.947 74.3224C60.9334 74.2897 59.9851 74.2734 59.1023 74.2734C58.3503 74.2734 57.5819 74.2897 56.7971 74.3224C56.0124 74.3224 55.3584 74.3551 54.8352 74.4205V73.4396C55.8816 73.2761 56.6663 72.9982 57.1895 72.6058C57.7126 72.2134 58.056 71.5758 58.2195 70.693C58.4156 69.7774 58.5137 68.5349 58.5137 66.9654V44.8944C58.5137 43.6846 58.4156 42.8017 58.2195 42.2459C58.056 41.6573 57.6963 41.2649 57.1404 41.0688C56.6173 40.8399 55.8489 40.7091 54.8352 40.6764V39.6954C55.3584 39.7281 56.0124 39.7608 56.7971 39.7935C57.5819 39.8262 58.3503 39.8426 59.1023 39.8426C60.5083 39.8426 61.8816 39.8262 63.2222 39.7935C64.5955 39.7608 65.8054 39.7281 66.8517 39.6954L77.1515 64.5621L75.9253 65.6902L85.7837 39.8426C86.3396 39.8426 86.9118 39.8426 87.5004 39.8426C88.0889 39.8426 88.6775 39.8426 89.266 39.8426C90.7047 39.8426 92.1108 39.8262 93.4841 39.7935C94.8901 39.7608 96.0508 39.7281 96.9664 39.6954ZM131.483 39.6954V40.6764C130.437 40.8072 129.636 41.0851 129.08 41.5102C128.557 41.9025 128.214 42.5402 128.05 43.423C127.887 44.3058 127.805 45.5484 127.805 47.1505V60.1479C127.805 62.2733 127.658 64.2188 127.363 65.9845C127.069 67.7502 126.546 69.2706 125.794 70.5458C124.944 71.9518 123.701 73.0636 122.066 73.881C120.432 74.6985 118.355 75.1072 115.837 75.1072C114.333 75.1072 112.797 74.9273 111.227 74.5677C109.658 74.2407 108.252 73.6031 107.009 72.6548C105.963 71.772 105.162 70.7747 104.606 69.663C104.05 68.5513 103.674 67.2434 103.478 65.7393C103.282 64.2025 103.183 62.3877 103.183 60.2951V44.8944C103.183 43.6846 103.085 42.8017 102.889 42.2459C102.726 41.6573 102.382 41.2649 101.859 41.0688C101.336 40.8399 100.551 40.7091 99.5049 40.6764V39.6954C100.322 39.7281 101.418 39.7608 102.791 39.7935C104.197 39.8262 105.652 39.8426 107.156 39.8426C108.66 39.8426 110.099 39.8262 111.472 39.7935C112.878 39.7608 114.039 39.7281 114.955 39.6954V40.6764C113.843 40.7091 112.993 40.8399 112.404 41.0688C111.848 41.2649 111.472 41.6573 111.276 42.2459C111.08 42.8017 110.982 43.6846 110.982 44.8944V63.385C110.982 65.0199 111.08 66.475 111.276 67.7502C111.505 68.9927 111.865 70.039 112.355 70.8892C112.878 71.7066 113.581 72.3279 114.464 72.7529C115.347 73.178 116.442 73.3906 117.75 73.3906C120.039 73.3906 121.821 72.851 123.096 71.772C124.404 70.693 125.32 69.2052 125.843 67.3088C126.399 65.3796 126.677 63.1725 126.677 60.6874V47.7391C126.677 45.9407 126.562 44.5674 126.333 43.6192C126.105 42.6382 125.647 41.9352 124.96 41.5102C124.306 41.0851 123.293 40.8072 121.919 40.6764V39.6954C122.541 39.7281 123.358 39.7608 124.372 39.7935C125.385 39.8262 126.333 39.8426 127.216 39.8426C128.001 39.8426 128.769 39.8262 129.522 39.7935C130.306 39.7608 130.96 39.7281 131.483 39.6954ZM146.318 39.0578C148.247 39.0578 149.735 39.2704 150.781 39.6954C151.827 40.0878 152.727 40.5129 153.479 40.9707C153.871 41.1995 154.182 41.3794 154.41 41.5102C154.672 41.6083 154.917 41.6573 155.146 41.6573C155.473 41.6573 155.702 41.4775 155.833 41.1178C155.996 40.7581 156.127 40.2186 156.225 39.4993H157.353C157.321 40.1205 157.272 40.8726 157.206 41.7554C157.173 42.6056 157.141 43.7336 157.108 45.1396C157.108 46.5456 157.108 48.3931 157.108 50.6819H155.98C155.849 48.9816 155.457 47.3304 154.803 45.7282C154.149 44.126 153.217 42.8181 152.007 41.8045C150.83 40.7581 149.375 40.235 147.642 40.235C146.073 40.235 144.781 40.6764 143.767 41.5592C142.754 42.4421 142.247 43.6682 142.247 45.2377C142.247 46.5456 142.574 47.6737 143.228 48.622C143.882 49.5375 144.83 50.4367 146.073 51.3195C147.348 52.2024 148.885 53.265 150.683 54.5076C152.252 55.5212 153.658 56.5348 154.901 57.5485C156.143 58.5621 157.141 59.7065 157.893 60.9817C158.645 62.2569 159.021 63.7774 159.021 65.5431C159.021 67.7011 158.449 69.4832 157.304 70.8892C156.192 72.2952 154.721 73.3579 152.89 74.0772C151.059 74.7639 149.048 75.1072 146.857 75.1072C144.83 75.1072 143.211 74.911 142.002 74.5186C140.792 74.1263 139.778 73.7175 138.961 73.2925C138.241 72.8347 137.686 72.6058 137.293 72.6058C136.966 72.6058 136.721 72.7856 136.557 73.1453C136.427 73.505 136.312 74.0445 136.214 74.7639H135.086C135.151 73.9791 135.184 73.0636 135.184 72.0172C135.217 70.9709 135.233 69.614 135.233 67.9464C135.266 66.2461 135.282 64.1044 135.282 61.5212H136.41C136.541 63.6793 136.901 65.7066 137.489 67.603C138.111 69.4668 139.042 70.9709 140.285 72.1153C141.56 73.2598 143.244 73.832 145.337 73.832C146.481 73.832 147.495 73.6358 148.378 73.2434C149.293 72.8183 150.029 72.1971 150.585 71.3796C151.141 70.5622 151.419 69.5486 151.419 68.3387C151.419 66.9654 151.092 65.772 150.438 64.7583C149.816 63.7447 148.95 62.7965 147.838 61.9136C146.759 61.0308 145.5 60.1316 144.062 59.216C142.525 58.2024 141.086 57.1888 139.745 56.1751C138.405 55.1615 137.326 54.0007 136.508 52.6928C135.724 51.3849 135.331 49.8318 135.331 48.0334C135.331 45.9734 135.838 44.2895 136.852 42.9816C137.898 41.641 139.255 40.66 140.923 40.0388C142.623 39.3848 144.421 39.0578 146.318 39.0578ZM188.939 39.6954C188.808 41.1342 188.71 42.5238 188.644 43.8644C188.612 45.205 188.595 46.235 188.595 46.9544C188.595 47.6083 188.612 48.2296 188.644 48.8181C188.677 49.4067 188.71 49.8972 188.742 50.2895H187.614C187.287 47.9026 186.781 46.0225 186.094 44.6492C185.407 43.2432 184.508 42.2622 183.396 41.7064C182.317 41.1178 181.042 40.8235 179.571 40.8235H177.56C176.611 40.8235 175.892 40.9053 175.402 41.0688C174.911 41.2322 174.584 41.5592 174.421 42.0497C174.257 42.5402 174.176 43.2922 174.176 44.3058V69.8101C174.176 70.8238 174.257 71.5758 174.421 72.0663C174.584 72.5568 174.911 72.8837 175.402 73.0472C175.892 73.2107 176.611 73.2925 177.56 73.2925H179.963C181.434 73.2925 182.726 72.9818 183.838 72.3606C184.982 71.7066 185.947 70.6112 186.731 69.0744C187.549 67.5376 188.17 65.4613 188.595 62.8455H189.723C189.625 63.8918 189.576 65.2651 189.576 66.9654C189.576 67.7175 189.593 68.7802 189.625 70.1535C189.658 71.5268 189.756 72.9491 189.92 74.4205C188.252 74.3551 186.372 74.3224 184.279 74.3224C182.186 74.2897 180.323 74.2734 178.688 74.2734C177.87 74.2734 176.824 74.2734 175.549 74.2734C174.274 74.2734 172.9 74.2897 171.429 74.3224C169.957 74.3224 168.47 74.3388 166.966 74.3715C165.462 74.3715 164.039 74.3878 162.699 74.4205V73.4396C163.745 73.3742 164.53 73.2434 165.053 73.0472C165.576 72.851 165.919 72.4587 166.083 71.8701C166.279 71.2815 166.377 70.3987 166.377 69.2216V44.8944C166.377 43.6846 166.279 42.8017 166.083 42.2459C165.919 41.6573 165.56 41.2649 165.004 41.0688C164.481 40.8399 163.712 40.7091 162.699 40.6764V39.6954C164.039 39.7281 165.462 39.7608 166.966 39.7935C168.47 39.7935 169.957 39.8099 171.429 39.8426C172.9 39.8426 174.274 39.8426 175.549 39.8426C176.824 39.8426 177.87 39.8426 178.688 39.8426C180.192 39.8426 181.892 39.8426 183.789 39.8426C185.718 39.8099 187.434 39.7608 188.939 39.6954ZM181.287 56.4694C181.287 56.4694 181.287 56.6329 181.287 56.9599C181.287 57.2869 181.287 57.4504 181.287 57.4504H172.704C172.704 57.4504 172.704 57.2869 172.704 56.9599C172.704 56.6329 172.704 56.4694 172.704 56.4694H181.287ZM182.71 49.9953C182.579 51.859 182.513 53.2814 182.513 54.2623C182.546 55.2433 182.562 56.1425 182.562 56.9599C182.562 57.7773 182.579 58.6765 182.612 59.6575C182.644 60.6384 182.726 62.0608 182.857 63.9245H181.729C181.565 62.7801 181.255 61.7174 180.797 60.7365C180.372 59.7556 179.75 58.9708 178.933 58.3823C178.116 57.761 177.053 57.4504 175.745 57.4504V56.4694C176.726 56.4694 177.56 56.2732 178.246 55.8809C178.933 55.4558 179.489 54.9163 179.914 54.2623C180.372 53.5757 180.731 52.8563 180.993 52.1043C181.255 51.3522 181.451 50.6492 181.582 49.9953H182.71ZM225.027 39.6954V40.6764C223.98 40.8072 223.179 41.0851 222.623 41.5102C222.1 41.9025 221.757 42.5402 221.593 43.423C221.43 44.3058 221.348 45.5484 221.348 47.1505V60.1479C221.348 62.2733 221.201 64.2188 220.907 65.9845C220.612 67.7502 220.089 69.2706 219.337 70.5458C218.487 71.9518 217.245 73.0636 215.61 73.881C213.975 74.6985 211.898 75.1072 209.381 75.1072C207.877 75.1072 206.34 74.9273 204.77 74.5677C203.201 74.2407 201.795 73.6031 200.552 72.6548C199.506 71.772 198.705 70.7747 198.149 69.663C197.593 68.5513 197.217 67.2434 197.021 65.7393C196.825 64.2025 196.727 62.3877 196.727 60.2951V44.8944C196.727 43.6846 196.629 42.8017 196.432 42.2459C196.269 41.6573 195.926 41.2649 195.402 41.0688C194.879 40.8399 194.094 40.7091 193.048 40.6764V39.6954C193.866 39.7281 194.961 39.7608 196.334 39.7935C197.74 39.8262 199.195 39.8426 200.699 39.8426C202.204 39.8426 203.642 39.8262 205.016 39.7935C206.422 39.7608 207.582 39.7281 208.498 39.6954V40.6764C207.386 40.7091 206.536 40.8399 205.947 41.0688C205.392 41.2649 205.016 41.6573 204.819 42.2459C204.623 42.8017 204.525 43.6846 204.525 44.8944V63.385C204.525 65.0199 204.623 66.475 204.819 67.7502C205.048 68.9927 205.408 70.039 205.898 70.8892C206.422 71.7066 207.125 72.3279 208.007 72.7529C208.89 73.178 209.986 73.3906 211.294 73.3906C213.582 73.3906 215.364 72.851 216.64 71.772C217.948 70.693 218.863 69.2052 219.386 67.3088C219.942 65.3796 220.22 63.1725 220.22 60.6874V47.7391C220.22 45.9407 220.106 44.5674 219.877 43.6192C219.648 42.6382 219.19 41.9352 218.503 41.5102C217.849 41.0851 216.836 40.8072 215.463 40.6764V39.6954C216.084 39.7281 216.901 39.7608 217.915 39.7935C218.928 39.8262 219.877 39.8426 220.76 39.8426C221.544 39.8426 222.313 39.8262 223.065 39.7935C223.85 39.7608 224.503 39.7281 225.027 39.6954ZM269.779 39.6954V40.6764C268.733 40.7091 267.948 40.8399 267.425 41.0688C266.902 41.2649 266.542 41.6573 266.346 42.2459C266.183 42.8017 266.101 43.6846 266.101 44.8944V69.2216C266.101 70.3987 266.183 71.2815 266.346 71.8701C266.542 72.4587 266.902 72.851 267.425 73.0472C267.948 73.2434 268.733 73.3742 269.779 73.4396V74.4205C268.864 74.3551 267.703 74.3224 266.297 74.3224C264.924 74.2897 263.518 74.2734 262.079 74.2734C260.51 74.2734 259.038 74.2897 257.665 74.3224C256.292 74.3224 255.18 74.3551 254.33 74.4205V73.4396C255.441 73.3742 256.275 73.2434 256.831 73.0472C257.42 72.851 257.812 72.4587 258.008 71.8701C258.204 71.2815 258.303 70.3987 258.303 69.2216V42.6873H258.646L246.482 74.4696H245.698L232.455 42.8835V66.3769C232.455 68.1752 232.553 69.5649 232.749 70.5458C232.945 71.4941 233.37 72.1807 234.024 72.6058C234.711 72.9982 235.774 73.2761 237.212 73.4396V74.4205C236.591 74.3551 235.774 74.3224 234.76 74.3224C233.746 74.2897 232.798 74.2734 231.915 74.2734C231.163 74.2734 230.395 74.2897 229.61 74.3224C228.825 74.3224 228.172 74.3551 227.648 74.4205V73.4396C228.695 73.2761 229.479 72.9982 230.003 72.6058C230.526 72.2134 230.869 71.5758 231.033 70.693C231.229 69.7774 231.327 68.5349 231.327 66.9654V44.8944C231.327 43.6846 231.229 42.8017 231.033 42.2459C230.869 41.6573 230.509 41.2649 229.954 41.0688C229.43 40.8399 228.662 40.7091 227.648 40.6764V39.6954C228.172 39.7281 228.825 39.7608 229.61 39.7935C230.395 39.8262 231.163 39.8426 231.915 39.8426C233.321 39.8426 234.695 39.8262 236.035 39.7935C237.409 39.7608 238.618 39.7281 239.665 39.6954L249.965 64.5621L248.738 65.6902L258.597 39.8426C259.153 39.8426 259.725 39.8426 260.313 39.8426C260.902 39.8426 261.491 39.8426 262.079 39.8426C263.518 39.8426 264.924 39.8262 266.297 39.7935C267.703 39.7608 268.864 39.7281 269.779 39.6954Z" fill="#F5F5F5"/>
</g>
<path d="M61.3813 33.0035C60.4413 33.0035 59.7628 32.7868 59.3459 32.3536C58.9372 31.9122 58.7247 31.1928 58.7083 30.1955C58.6838 28.9203 58.6674 27.6982 58.6593 26.5293C58.6511 25.3522 58.647 24.1873 58.647 23.0347C58.647 21.8821 58.6511 20.7172 58.6593 19.5401C58.6674 18.363 58.6838 17.1409 58.7083 15.8739C58.7247 14.9175 58.9372 14.2145 59.3459 13.7649C59.7628 13.3153 60.4331 13.0905 61.3568 13.0905C62.3132 13.0905 63.004 13.3071 63.4291 13.7403C63.8623 14.1654 64.0912 14.8766 64.1157 15.8739C64.1239 16.2009 64.128 16.6218 64.128 17.1368C64.1361 17.6436 64.1361 18.1505 64.128 18.6573C64.128 19.1641 64.1239 19.5769 64.1157 19.8957H62.9999C63.0081 19.4461 63.0122 18.9883 63.0122 18.5224C63.0203 18.0565 63.0203 17.5905 63.0122 17.1246C63.0122 16.6505 63.0081 16.1886 62.9999 15.739C62.9917 15.1177 62.865 14.6845 62.6198 14.4393C62.3745 14.194 61.9536 14.0714 61.3568 14.0714C60.8173 14.0714 60.429 14.194 60.192 14.4393C59.9631 14.6845 59.8405 15.1177 59.8241 15.739C59.7996 17.0469 59.7792 18.2976 59.7628 19.4911C59.7546 20.6845 59.7505 21.8658 59.7505 23.0347C59.7505 24.1955 59.7546 25.3767 59.7628 26.5783C59.7792 27.78 59.7996 29.0307 59.8241 30.3304C59.8405 30.9435 59.9672 31.3808 60.2042 31.6424C60.4413 31.8958 60.8337 32.0225 61.3813 32.0225C62.0026 32.0225 62.4399 31.8958 62.6933 31.6424C62.9549 31.3808 63.0898 30.9435 63.098 30.3304C63.1062 29.8481 63.1102 29.3536 63.1102 28.8467C63.1102 28.3317 63.1062 27.8208 63.098 27.314C63.0898 26.8072 63.0816 26.3127 63.0735 25.8304H64.1893C64.2138 26.5988 64.2301 27.3263 64.2383 28.0129C64.2465 28.6996 64.2383 29.4271 64.2138 30.1955C64.1893 31.1928 63.9563 31.9122 63.5149 32.3536C63.0816 32.7868 62.3705 33.0035 61.3813 33.0035ZM74.3525 32.9789C73.3797 32.9789 72.6808 32.7664 72.2557 32.3413C71.8388 31.9162 71.6222 31.2132 71.6059 30.2323C71.5813 28.9734 71.5609 27.7514 71.5446 26.5661C71.5364 25.3726 71.5323 24.1955 71.5323 23.0347C71.5323 21.8658 71.5364 20.6886 71.5446 19.5033C71.5609 18.318 71.5813 17.0919 71.6059 15.8248C71.6222 14.8357 71.8388 14.1286 72.2557 13.7036C72.6808 13.2785 73.3797 13.066 74.3525 13.066C75.3252 13.066 76.0242 13.2785 76.4492 13.7036C76.8743 14.1286 77.0909 14.8357 77.0991 15.8248C77.1155 17.0919 77.1277 18.3221 77.1359 19.5156C77.1441 20.7009 77.1481 21.8739 77.1481 23.0347C77.1481 24.1955 77.1441 25.3726 77.1359 26.5661C77.1277 27.7514 77.1155 28.9734 77.0991 30.2323C77.0909 31.2132 76.8743 31.9162 76.4492 32.3413C76.0242 32.7664 75.3252 32.9789 74.3525 32.9789ZM74.3525 31.998C74.941 31.998 75.3579 31.8795 75.6032 31.6424C75.8484 31.3972 75.9751 30.9721 75.9833 30.3672C76.016 29.0756 76.0364 27.8168 76.0446 26.5906C76.0528 25.3644 76.0569 24.1546 76.0569 22.9611C76.0569 21.7595 76.0487 20.5578 76.0323 19.3562C76.016 18.1546 75.9996 16.9325 75.9833 15.69C75.9751 15.0769 75.8484 14.6518 75.6032 14.4147C75.3579 14.1695 74.941 14.0469 74.3525 14.0469C73.7721 14.0469 73.3593 14.1695 73.1141 14.4147C72.8688 14.6518 72.738 15.0769 72.7217 15.69C72.689 16.9325 72.6645 18.1546 72.6481 19.3562C72.6318 20.5578 72.6236 21.7595 72.6236 22.9611C72.6318 24.1546 72.644 25.3644 72.6604 26.5906C72.6767 27.8168 72.6972 29.0756 72.7217 30.3672C72.738 30.9721 72.8688 31.3972 73.1141 31.6424C73.3593 31.8795 73.7721 31.998 74.3525 31.998ZM84.841 32.8318V13.2131H87.0972L88.1639 21.3794L89.0713 31.7037H89.4882L90.371 21.3794L91.4501 13.2131H93.7062V32.8318H92.5781V26.9462L92.7621 14.2431H92.2348L90.8738 27.2282L90.1381 32.7337H88.3969L87.6857 27.2282L86.3124 14.2431H85.8097L85.9691 26.9462V32.8318H84.841ZM101.606 32.8318V13.2131H103.862L104.929 21.3794L105.836 31.7037H106.253L107.136 21.3794L108.215 13.2131H110.471V32.8318H109.343V26.9462L109.527 14.2431H109L107.639 27.2282L106.903 32.7337H105.162L104.451 27.2282L103.077 14.2431H102.575L102.734 26.9462V32.8318H101.606ZM120.909 32.9789C119.953 32.9789 119.266 32.7664 118.849 32.3413C118.432 31.9162 118.216 31.2132 118.199 30.2323C118.167 27.3958 118.15 24.5592 118.15 21.7227C118.15 18.8862 118.167 16.0496 118.199 13.2131H119.315C119.299 15.1014 119.282 17.006 119.266 18.927C119.258 20.8399 119.254 22.7527 119.254 24.6655C119.262 26.5702 119.274 28.4707 119.291 30.3672C119.291 30.9394 119.421 31.3563 119.683 31.6179C119.945 31.8713 120.353 31.998 120.909 31.998C121.465 31.998 121.866 31.8713 122.111 31.6179C122.364 31.3563 122.491 30.9394 122.491 30.3672C122.507 28.4707 122.52 26.5702 122.528 24.6655C122.536 22.7527 122.536 20.8399 122.528 18.927C122.528 17.006 122.515 15.1014 122.491 13.2131H123.607C123.639 16.0496 123.656 18.8862 123.656 21.7227C123.656 24.5592 123.639 27.3958 123.607 30.2323C123.599 31.2132 123.382 31.9162 122.957 32.3413C122.54 32.7664 121.857 32.9789 120.909 32.9789ZM131.328 32.8318V13.2131H133.474L134.467 19.4175L136.221 31.8018H136.736L136.564 19.9693L136.503 13.2131H137.606V32.8318H135.411L134.259 25.6464L132.738 14.2431H132.211L132.358 25.3031L132.419 32.8318H131.328ZM145.507 32.8318V13.2131H146.622V32.8318H145.507ZM155.628 32.8318V14.2431H153.286V13.2131H159.074V14.2431H156.744V32.8318H155.628ZM167.364 32.8318V27.5838V27.5593L164.936 13.2131H166.088L167.008 18.9516L167.744 24.5184H168.112L168.835 18.9516L169.755 13.2131H170.932L168.479 27.5715V27.596V32.8318H167.364ZM190.591 32.9789C189.626 32.9789 188.931 32.7623 188.506 32.3291C188.081 31.8876 187.848 31.1683 187.807 30.171C187.799 29.607 187.791 29.1042 187.783 28.6628C187.783 28.2214 187.787 27.78 187.795 27.3386C187.803 26.889 187.816 26.3781 187.832 25.8058H188.911C188.878 26.5579 188.862 27.314 188.862 28.0743C188.862 28.8263 188.878 29.5702 188.911 30.3059C188.935 30.9026 189.074 31.3359 189.328 31.6056C189.581 31.8672 189.994 31.998 190.566 31.998C191.13 31.998 191.531 31.8672 191.768 31.6056C192.013 31.3359 192.148 30.9026 192.173 30.3059C192.197 29.7991 192.209 29.3536 192.209 28.9694C192.217 28.5852 192.217 28.1887 192.209 27.78C192.201 27.3713 192.189 26.8849 192.173 26.3208C192.164 25.6424 192.087 25.0824 191.94 24.641C191.792 24.1914 191.474 23.9012 190.983 23.7704L189.88 23.4884C189.307 23.3494 188.874 23.1369 188.58 22.8508C188.294 22.5565 188.098 22.1641 187.991 21.6737C187.885 21.1832 187.82 20.5701 187.795 19.8344C187.787 19.2622 187.787 18.6205 187.795 17.9093C187.803 17.19 187.811 16.4992 187.82 15.8371C187.828 15.175 187.922 14.6395 188.102 14.2308C188.29 13.8221 188.584 13.5278 188.984 13.348C189.385 13.16 189.912 13.066 190.566 13.066C191.49 13.066 192.156 13.2826 192.565 13.7158C192.974 14.1491 193.19 14.8643 193.215 15.8616C193.231 16.3357 193.239 16.9243 193.239 17.6273C193.239 18.3221 193.231 19.0701 193.215 19.8712H192.123C192.148 19.1845 192.16 18.4938 192.16 17.799C192.168 17.1041 192.16 16.4134 192.136 15.7267C192.111 15.1382 191.976 14.7131 191.731 14.4515C191.486 14.1818 191.089 14.0469 190.542 14.0469C189.978 14.0469 189.577 14.1818 189.34 14.4515C189.103 14.7131 188.968 15.1382 188.935 15.7267C188.903 16.4052 188.886 17.0878 188.886 17.7744C188.895 18.4529 188.911 19.1396 188.935 19.8344C188.952 20.66 189.029 21.269 189.168 21.6614C189.316 22.0538 189.647 22.3113 190.162 22.4339L191.228 22.6914C191.801 22.8303 192.23 23.0511 192.516 23.3535C192.81 23.6478 193.01 24.0402 193.117 24.5306C193.223 25.0211 193.284 25.6178 193.301 26.3208C193.317 26.9012 193.325 27.3835 193.325 27.7677C193.325 28.1519 193.321 28.5238 193.313 28.8835C193.313 29.2432 193.305 29.6724 193.288 30.171C193.264 31.1683 193.039 31.8876 192.614 32.3291C192.189 32.7623 191.514 32.9789 190.591 32.9789ZM203.359 33.0035C202.419 33.0035 201.741 32.7868 201.324 32.3536C200.915 31.9122 200.702 31.1928 200.686 30.1955C200.662 28.9203 200.645 27.6982 200.637 26.5293C200.629 25.3522 200.625 24.1873 200.625 23.0347C200.625 21.8821 200.629 20.7172 200.637 19.5401C200.645 18.363 200.662 17.1409 200.686 15.8739C200.702 14.9175 200.915 14.2145 201.324 13.7649C201.741 13.3153 202.411 13.0905 203.335 13.0905C204.291 13.0905 204.982 13.3071 205.407 13.7403C205.84 14.1654 206.069 14.8766 206.094 15.8739C206.102 16.2009 206.106 16.6218 206.106 17.1368C206.114 17.6436 206.114 18.1505 206.106 18.6573C206.106 19.1641 206.102 19.5769 206.094 19.8957H204.978C204.986 19.4461 204.99 18.9883 204.99 18.5224C204.998 18.0565 204.998 17.5905 204.99 17.1246C204.99 16.6505 204.986 16.1886 204.978 15.739C204.97 15.1177 204.843 14.6845 204.598 14.4393C204.352 14.194 203.931 14.0714 203.335 14.0714C202.795 14.0714 202.407 14.194 202.17 14.4393C201.941 14.6845 201.818 15.1177 201.802 15.739C201.777 17.0469 201.757 18.2976 201.741 19.4911C201.732 20.6845 201.728 21.8658 201.728 23.0347C201.728 24.1955 201.732 25.3767 201.741 26.5783C201.757 27.78 201.777 29.0307 201.802 30.3304C201.818 30.9435 201.945 31.3808 202.182 31.6424C202.419 31.8958 202.811 32.0225 203.359 32.0225C203.98 32.0225 204.418 31.8958 204.671 31.6424C204.933 31.3808 205.068 30.9435 205.076 30.3304C205.084 29.8481 205.088 29.3536 205.088 28.8467C205.088 28.3317 205.084 27.8208 205.076 27.314C205.068 26.8072 205.059 26.3127 205.051 25.8304H206.167C206.192 26.5988 206.208 27.3263 206.216 28.0129C206.224 28.6996 206.216 29.4271 206.192 30.1955C206.167 31.1928 205.934 31.9122 205.493 32.3536C205.059 32.7868 204.348 33.0035 203.359 33.0035ZM213.694 32.8318V13.2131H214.81V32.8318H213.694ZM222.7 32.8318V13.2131H227.506V14.2431H223.815V22.4707H227.261V23.5006H223.815V31.8018H227.506V32.8318H222.7ZM234.603 32.8318V13.2131H236.749L237.742 19.4175L239.496 31.8018H240.01L239.839 19.9693L239.778 13.2131H240.881V32.8318H238.686L237.534 25.6464L236.013 14.2431H235.486L235.633 25.3031L235.694 32.8318H234.603ZM251.332 33.0035C250.392 33.0035 249.714 32.7868 249.297 32.3536C248.888 31.9122 248.675 31.1928 248.659 30.1955C248.634 28.9203 248.618 27.6982 248.61 26.5293C248.602 25.3522 248.598 24.1873 248.598 23.0347C248.598 21.8821 248.602 20.7172 248.61 19.5401C248.618 18.363 248.634 17.1409 248.659 15.8739C248.675 14.9175 248.888 14.2145 249.297 13.7649C249.714 13.3153 250.384 13.0905 251.308 13.0905C252.264 13.0905 252.955 13.3071 253.38 13.7403C253.813 14.1654 254.042 14.8766 254.066 15.8739C254.075 16.2009 254.079 16.6218 254.079 17.1368C254.087 17.6436 254.087 18.1505 254.079 18.6573C254.079 19.1641 254.075 19.5769 254.066 19.8957H252.951C252.959 19.4461 252.963 18.9883 252.963 18.5224C252.971 18.0565 252.971 17.5905 252.963 17.1246C252.963 16.6505 252.959 16.1886 252.951 15.739C252.942 15.1177 252.816 14.6845 252.57 14.4393C252.325 14.194 251.904 14.0714 251.308 14.0714C250.768 14.0714 250.38 14.194 250.143 14.4393C249.914 14.6845 249.791 15.1177 249.775 15.739C249.75 17.0469 249.73 18.2976 249.714 19.4911C249.705 20.6845 249.701 21.8658 249.701 23.0347C249.701 24.1955 249.705 25.3767 249.714 26.5783C249.73 27.78 249.75 29.0307 249.775 30.3304C249.791 30.9435 249.918 31.3808 250.155 31.6424C250.392 31.8958 250.784 32.0225 251.332 32.0225C251.953 32.0225 252.391 31.8958 252.644 31.6424C252.906 31.3808 253.041 30.9435 253.049 30.3304C253.057 29.8481 253.061 29.3536 253.061 28.8467C253.061 28.3317 253.057 27.8208 253.049 27.314C253.041 26.8072 253.032 26.3127 253.024 25.8304H254.14C254.164 26.5988 254.181 27.3263 254.189 28.0129C254.197 28.6996 254.189 29.4271 254.164 30.1955C254.14 31.1928 253.907 31.9122 253.466 32.3536C253.032 32.7868 252.321 33.0035 251.332 33.0035ZM261.667 32.8318V13.2131H266.474V14.2431H262.783V22.4707H266.228V23.5006H262.783V31.8018H266.474V32.8318H261.667Z" fill="#F5F5F5"/>
<g filter="url(#filter1_d_36_193)">
<path d="M34.6803 58.3948V73.0221C34.6803 73.974 34.1725 74.8534 33.3474 75.3304L21.6097 82.104L20.6741 82.643C19.8489 83.1189 18.8324 83.1189 18.0072 82.643L16.73 81.9054L5.33292 75.3294C4.50878 74.8534 4 73.973 4 73.0211V58.3938C4 57.4409 4.50878 56.5615 5.33292 56.0845L18.0072 48.7719C18.8314 48.2959 19.8479 48.2959 20.6741 48.7719L33.3474 56.0845C34.1725 56.5604 34.6803 57.4409 34.6803 58.3938V58.3948Z" stroke="#F5F5F5" stroke-width="1.67347" shape-rendering="crispEdges"/>
</g>
<g filter="url(#filter2_d_36_193)">
<path d="M34.6803 10.9799V25.6072C34.6803 26.5591 34.1725 27.4385 33.3474 27.9155L21.6097 34.6891L20.6741 35.2281C19.8489 35.704 18.8324 35.704 18.0072 35.2281L16.73 34.4905L5.33292 27.9144C4.50878 27.4385 4 26.558 4 25.6062V10.9789C4 10.0259 4.50878 9.14654 5.33292 8.66954L18.0072 1.35696C18.8314 0.881013 19.8479 0.881013 20.6741 1.35696L33.3474 8.66954C34.1725 9.14549 34.6803 10.0259 34.6803 10.9789V10.9799Z" stroke="#F5F5F5" stroke-width="1.67347" shape-rendering="crispEdges"/>
</g>
<g filter="url(#filter3_d_36_193)">
<path d="M46.9524 34.4085V49.0358C46.9524 49.9877 46.4446 50.8671 45.6194 51.3441L33.8818 58.1177L32.9462 58.6567C32.121 59.1326 31.1045 59.1326 30.2793 58.6567L29.0021 57.9191L17.605 51.343C16.7809 50.8671 16.2721 49.9866 16.2721 49.0347V34.4075C16.2721 33.4545 16.7809 32.5751 17.605 32.0981L30.2793 24.7855C31.1034 24.3096 32.12 24.3096 32.9462 24.7855L45.6194 32.0981C46.4446 32.5741 46.9524 33.4545 46.9524 34.4075V34.4085Z" fill="#F5F5F5"/>
<path d="M46.9524 34.4085V49.0358C46.9524 49.9877 46.4446 50.8671 45.6194 51.3441L33.8818 58.1177L32.9462 58.6567C32.121 59.1326 31.1045 59.1326 30.2793 58.6567L29.0021 57.9191L17.605 51.343C16.7809 50.8671 16.2721 49.9866 16.2721 49.0347V34.4075C16.2721 33.4545 16.7809 32.5751 17.605 32.0981L30.2793 24.7855C31.1034 24.3096 32.12 24.3096 32.9462 24.7855L45.6194 32.0981C46.4446 32.5741 46.9524 33.4545 46.9524 34.4075V34.4085Z" stroke="#F5F5F5" stroke-width="1.67347"/>
</g>
<defs>
<filter id="filter0_d_36_193" x="51.7698" y="39.0579" width="221.075" height="42.1802" filterUnits="userSpaceOnUse" color-interpolation-filters="sRGB">
<feFlood flood-opacity="0" result="BackgroundImageFix"/>
<feColorMatrix in="SourceAlpha" type="matrix" values="0 0 0 0 0 0 0 0 0 0 0 0 0 0 0 0 0 0 127 0" result="hardAlpha"/>
<feOffset dy="3.06542"/>
<feGaussianBlur stdDeviation="1.53271"/>
<feComposite in2="hardAlpha" operator="out"/>
<feColorMatrix type="matrix" values="0 0 0 0 0.117647 0 0 0 0 0.117647 0 0 0 0 0.117647 0 0 0 0.35 0"/>
<feBlend mode="normal" in2="BackgroundImageFix" result="effect1_dropShadow_36_193"/>
<feBlend mode="normal" in="SourceGraphic" in2="effect1_dropShadow_36_193" result="shape"/>
</filter>
<filter id="filter1_d_36_193" x="0.931916" y="47.5781" width="36.8163" height="40.7211" filterUnits="userSpaceOnUse" color-interpolation-filters="sRGB">
<feFlood flood-opacity="0" result="BackgroundImageFix"/>
<feColorMatrix in="SourceAlpha" type="matrix" values="0 0 0 0 0 0 0 0 0 0 0 0 0 0 0 0 0 0 127 0" result="hardAlpha"/>
<feOffset dy="2.23129"/>
<feGaussianBlur stdDeviation="1.11565"/>
<feComposite in2="hardAlpha" operator="out"/>
<feColorMatrix type="matrix" values="0 0 0 0 0.117647 0 0 0 0 0.117647 0 0 0 0 0.117647 0 0 0 0.35 0"/>
<feBlend mode="normal" in2="BackgroundImageFix" result="effect1_dropShadow_36_193"/>
<feBlend mode="normal" in="SourceGraphic" in2="effect1_dropShadow_36_193" result="shape"/>
</filter>
<filter id="filter2_d_36_193" x="0.931916" y="0.163208" width="36.8163" height="40.7211" filterUnits="userSpaceOnUse" color-interpolation-filters="sRGB">
<feFlood flood-opacity="0" result="BackgroundImageFix"/>
<feColorMatrix in="SourceAlpha" type="matrix" values="0 0 0 0 0 0 0 0 0 0 0 0 0 0 0 0 0 0 127 0" result="hardAlpha"/>
<feOffset dy="2.23129"/>
<feGaussianBlur stdDeviation="1.11565"/>
<feComposite in2="hardAlpha" operator="out"/>
<feColorMatrix type="matrix" values="0 0 0 0 0.117647 0 0 0 0 0.117647 0 0 0 0 0.117647 0 0 0 0.35 0"/>
<feBlend mode="normal" in2="BackgroundImageFix" result="effect1_dropShadow_36_193"/>
<feBlend mode="normal" in="SourceGraphic" in2="effect1_dropShadow_36_193" result="shape"/>
</filter>
<filter id="filter3_d_36_193" x="13.204" y="23.5918" width="36.8163" height="40.7211" filterUnits="userSpaceOnUse" color-interpolation-filters="sRGB">
<feFlood flood-opacity="0" result="BackgroundImageFix"/>
<feColorMatrix in="SourceAlpha" type="matrix" values="0 0 0 0 0 0 0 0 0 0 0 0 0 0 0 0 0 0 127 0" result="hardAlpha"/>
<feOffset dy="2.23129"/>
<feGaussianBlur stdDeviation="1.11565"/>
<feComposite in2="hardAlpha" operator="out"/>
<feColorMatrix type="matrix" values="0 0 0 0 0.117647 0 0 0 0 0.117647 0 0 0 0 0.117647 0 0 0 0.35 0"/>
<feBlend mode="normal" in2="BackgroundImageFix" result="effect1_dropShadow_36_193"/>
<feBlend mode="normal" in="SourceGraphic" in2="effect1_dropShadow_36_193" result="shape"/>
</filter>
</defs>
</svg>
